<svg width="220" height="170" viewBox="0 0 220 170" fill="none" xmlns="http://www.w3.org/2000/svg">
<path d="M12.9511 104.88V116H11.1271V108.384L7.73506 116H6.47106L3.06306 108.384V116H1.23906V104.88H3.20706L7.11106 113.6L10.9991 104.88H12.9511ZM19.1724 116.144C18.3404 116.144 17.5884 115.957 16.9164 115.584C16.2444 115.2 15.7164 114.667 15.3324 113.984C14.9484 113.291 14.7564 112.491 14.7564 111.584C14.7564 110.688 14.9538 109.893 15.3484 109.2C15.7431 108.507 16.2818 107.973 16.9644 107.6C17.6471 107.227 18.4098 107.04 19.2524 107.04C20.0951 107.04 20.8578 107.227 21.5404 107.6C22.2231 107.973 22.7618 108.507 23.1564 109.2C23.5511 109.893 23.7484 110.688 23.7484 111.584C23.7484 112.48 23.5458 113.275 23.1404 113.968C22.7351 114.661 22.1804 115.2 21.4764 115.584C20.7831 115.957 20.0151 116.144 19.1724 116.144ZM19.1724 114.56C19.6418 114.56 20.0791 114.448 20.4844 114.224C20.9004 114 21.2364 113.664 21.4924 113.216C21.7484 112.768 21.8764 112.224 21.8764 111.584C21.8764 110.944 21.7538 110.405 21.5084 109.968C21.2631 109.52 20.9378 109.184 20.5324 108.96C20.1271 108.736 19.6898 108.624 19.2204 108.624C18.7511 108.624 18.3138 108.736 17.9084 108.96C17.5138 109.184 17.1991 109.52 16.9644 109.968C16.7298 110.405 16.6124 110.944 16.6124 111.584C16.6124 112.533 16.8524 113.269 17.3324 113.792C17.8231 114.304 18.4364 114.56 19.1724 114.56ZM27.3756 108.496C27.6849 108.069 28.1062 107.723 28.6396 107.456C29.1836 107.179 29.7862 107.04 30.4476 107.04C31.2262 107.04 31.9302 107.227 32.5596 107.6C33.1889 107.973 33.6849 108.507 34.0476 109.2C34.4102 109.883 34.5916 110.667 34.5916 111.552C34.5916 112.437 34.4102 113.232 34.0476 113.936C33.6849 114.629 33.1836 115.173 32.5436 115.568C31.9142 115.952 31.2156 116.144 30.4476 116.144C29.7649 116.144 29.1569 116.011 28.6236 115.744C28.1009 115.477 27.6849 115.136 27.3756 114.72V116H25.5516V104.16H27.3756V108.496ZM32.7356 111.552C32.7356 110.944 32.6076 110.421 32.3516 109.984C32.1062 109.536 31.7756 109.2 31.3596 108.976C30.9542 108.741 30.5169 108.624 30.0476 108.624C29.5889 108.624 29.1516 108.741 28.7356 108.976C28.3302 109.211 27.9996 109.552 27.7436 110C27.4982 110.448 27.3756 110.976 27.3756 111.584C27.3756 112.192 27.4982 112.725 27.7436 113.184C27.9996 113.632 28.3302 113.973 28.7356 114.208C29.1516 114.443 29.5889 114.56 30.0476 114.56C30.5169 114.56 30.9542 114.443 31.3596 114.208C31.7756 113.963 32.1062 113.611 32.3516 113.152C32.6076 112.693 32.7356 112.16 32.7356 111.552ZM37.3233 106.016C36.9926 106.016 36.7153 105.904 36.4913 105.68C36.2673 105.456 36.1553 105.179 36.1553 104.848C36.1553 104.517 36.2673 104.24 36.4913 104.016C36.7153 103.792 36.9926 103.68 37.3233 103.68C37.6433 103.68 37.9153 103.792 38.1393 104.016C38.3633 104.24 38.4753 104.517 38.4753 104.848C38.4753 105.179 38.3633 105.456 38.1393 105.68C37.9153 105.904 37.6433 106.016 37.3233 106.016ZM38.2193 107.184V116H36.3953V107.184H38.2193ZM42.4381 104.16V116H40.6141V104.16H42.4381ZM52.9128 111.376C52.9128 111.707 52.8915 112.005 52.8488 112.272H46.1128C46.1661 112.976 46.4275 113.541 46.8968 113.968C47.3661 114.395 47.9421 114.608 48.6248 114.608C49.6061 114.608 50.2995 114.197 50.7048 113.376H52.6728C52.4061 114.187 51.9208 114.853 51.2168 115.376C50.5235 115.888 49.6595 116.144 48.6248 116.144C47.7821 116.144 47.0248 115.957 46.3528 115.584C45.6915 115.2 45.1688 114.667 44.7848 113.984C44.4115 113.291 44.2248 112.491 44.2248 111.584C44.2248 110.677 44.4061 109.883 44.7688 109.2C45.1421 108.507 45.6595 107.973 46.3208 107.6C46.9928 107.227 47.7608 107.04 48.6248 107.04C49.4568 107.04 50.1981 107.221 50.8488 107.584C51.4995 107.947 52.0061 108.459 52.3688 109.12C52.7315 109.771 52.9128 110.523 52.9128 111.376ZM51.0088 110.8C50.9981 110.128 50.7581 109.589 50.2888 109.184C49.8195 108.779 49.2381 108.576 48.5448 108.576C47.9155 108.576 47.3768 108.779 46.9288 109.184C46.4808 109.579 46.2141 110.117 46.1288 110.8H51.0088ZM66.9121 108.08C66.6241 107.525 66.2241 107.109 65.7121 106.832C65.2001 106.544 64.6081 106.4 63.9361 106.4C63.2001 106.4 62.5441 106.565 61.9681 106.896C61.3921 107.227 60.9387 107.696 60.6081 108.304C60.2881 108.912 60.1281 109.616 60.1281 110.416C60.1281 111.216 60.2881 111.925 60.6081 112.544C60.9387 113.152 61.3921 113.621 61.9681 113.952C62.5441 114.283 63.2001 114.448 63.9361 114.448C64.9281 114.448 65.7334 114.171 66.3521 113.616C66.9707 113.061 67.3494 112.309 67.4881 111.36H63.3121V109.904H69.4401V111.328C69.3227 112.192 69.0134 112.987 68.5121 113.712C68.0214 114.437 67.3761 115.019 66.5761 115.456C65.7867 115.883 64.9067 116.096 63.9361 116.096C62.8907 116.096 61.9361 115.856 61.0721 115.376C60.2081 114.885 59.5201 114.208 59.0081 113.344C58.5067 112.48 58.2561 111.504 58.2561 110.416C58.2561 109.328 58.5067 108.352 59.0081 107.488C59.5201 106.624 60.2081 105.952 61.0721 105.472C61.9467 104.981 62.9014 104.736 63.9361 104.736C65.1201 104.736 66.1707 105.029 67.0881 105.616C68.0161 106.192 68.6881 107.013 69.1041 108.08H66.9121ZM70.6311 111.552C70.6311 110.667 70.8124 109.883 71.1751 109.2C71.5484 108.517 72.0497 107.989 72.6791 107.616C73.3191 107.232 74.0231 107.04 74.7911 107.04C75.4844 107.04 76.0871 107.179 76.5991 107.456C77.1217 107.723 77.5377 108.059 77.8471 108.464V107.184H79.6871V116H77.8471V114.688C77.5377 115.104 77.1164 115.451 76.5831 115.728C76.0497 116.005 75.4417 116.144 74.7591 116.144C74.0017 116.144 73.3084 115.952 72.6791 115.568C72.0497 115.173 71.5484 114.629 71.1751 113.936C70.8124 113.232 70.6311 112.437 70.6311 111.552ZM77.8471 111.584C77.8471 110.976 77.7191 110.448 77.4631 110C77.2177 109.552 76.8924 109.211 76.4871 108.976C76.0817 108.741 75.6444 108.624 75.1751 108.624C74.7057 108.624 74.2684 108.741 73.8631 108.976C73.4577 109.2 73.1271 109.536 72.8711 109.984C72.6257 110.421 72.5031 110.944 72.5031 111.552C72.5031 112.16 72.6257 112.693 72.8711 113.152C73.1271 113.611 73.4577 113.963 73.8631 114.208C74.2791 114.443 74.7164 114.56 75.1751 114.56C75.6444 114.56 76.0817 114.443 76.4871 114.208C76.8924 113.973 77.2177 113.632 77.4631 113.184C77.7191 112.725 77.8471 112.192 77.8471 111.584ZM92.7548 107.04C93.4481 107.04 94.0668 107.184 94.6108 107.472C95.1655 107.76 95.5975 108.187 95.9068 108.752C96.2268 109.317 96.3868 110 96.3868 110.8V116H94.5788V111.072C94.5788 110.283 94.3815 109.68 93.9868 109.264C93.5921 108.837 93.0535 108.624 92.3708 108.624C91.6881 108.624 91.1441 108.837 90.7388 109.264C90.3441 109.68 90.1468 110.283 90.1468 111.072V116H88.3388V111.072C88.3388 110.283 88.1415 109.68 87.7468 109.264C87.3521 108.837 86.8135 108.624 86.1308 108.624C85.4481 108.624 84.9041 108.837 84.4988 109.264C84.1041 109.68 83.9068 110.283 83.9068 111.072V116H82.0828V107.184H83.9068V108.192C84.2055 107.829 84.5841 107.547 85.0428 107.344C85.5015 107.141 85.9921 107.04 86.5148 107.04C87.2188 107.04 87.8481 107.189 88.4028 107.488C88.9575 107.787 89.3841 108.219 89.6828 108.784C89.9495 108.251 90.3655 107.829 90.9308 107.52C91.4961 107.2 92.1041 107.04 92.7548 107.04ZM106.788 111.376C106.788 111.707 106.766 112.005 106.724 112.272H99.9878C100.041 112.976 100.302 113.541 100.772 113.968C101.241 114.395 101.817 114.608 102.5 114.608C103.481 114.608 104.174 114.197 104.58 113.376H106.548C106.281 114.187 105.796 114.853 105.092 115.376C104.398 115.888 103.534 116.144 102.5 116.144C101.657 116.144 100.9 115.957 100.228 115.584C99.5665 115.2 99.0438 114.667 98.6598 113.984C98.2865 113.291 98.0998 112.491 98.0998 111.584C98.0998 110.677 98.2811 109.883 98.6438 109.2C99.0171 108.507 99.5345 107.973 100.196 107.6C100.868 107.227 101.636 107.04 102.5 107.04C103.332 107.04 104.073 107.221 104.724 107.584C105.374 107.947 105.881 108.459 106.244 109.12C106.606 109.771 106.788 110.523 106.788 111.376ZM104.884 110.8C104.873 110.128 104.633 109.589 104.164 109.184C103.694 108.779 103.113 108.576 102.42 108.576C101.79 108.576 101.252 108.779 100.804 109.184C100.356 109.579 100.089 110.117 100.004 110.8H104.884ZM116.371 104.88C117.555 104.88 118.59 105.109 119.475 105.568C120.371 106.016 121.059 106.667 121.539 107.52C122.03 108.363 122.275 109.349 122.275 110.48C122.275 111.611 122.03 112.592 121.539 113.424C121.059 114.256 120.371 114.896 119.475 115.344C118.59 115.781 117.555 116 116.371 116H112.739V104.88H116.371ZM116.371 114.512C117.672 114.512 118.67 114.16 119.363 113.456C120.056 112.752 120.403 111.76 120.403 110.48C120.403 109.189 120.056 108.181 119.363 107.456C118.67 106.731 117.672 106.368 116.371 106.368H114.563V114.512H116.371ZM132.163 111.376C132.163 111.707 132.141 112.005 132.099 112.272H125.363C125.416 112.976 125.677 113.541 126.147 113.968C126.616 114.395 127.192 114.608 127.875 114.608C128.856 114.608 129.549 114.197 129.955 113.376H131.923C131.656 114.187 131.171 114.853 130.467 115.376C129.773 115.888 128.909 116.144 127.875 116.144C127.032 116.144 126.275 115.957 125.603 115.584C124.941 115.2 124.419 114.667 124.035 113.984C123.661 113.291 123.475 112.491 123.475 111.584C123.475 110.677 123.656 109.883 124.019 109.2C124.392 108.507 124.909 107.973 125.571 107.6C126.243 107.227 127.011 107.04 127.875 107.04C128.707 107.04 129.448 107.221 130.099 107.584C130.749 107.947 131.256 108.459 131.619 109.12C131.981 109.771 132.163 110.523 132.163 111.376ZM130.259 110.8C130.248 110.128 130.008 109.589 129.539 109.184C129.069 108.779 128.488 108.576 127.795 108.576C127.165 108.576 126.627 108.779 126.179 109.184C125.731 109.579 125.464 110.117 125.379 110.8H130.259ZM137.366 114.368L139.862 107.184H141.798L138.438 116H136.262L132.918 107.184H134.87L137.366 114.368ZM151.257 111.376C151.257 111.707 151.235 112.005 151.193 112.272H144.457C144.51 112.976 144.771 113.541 145.241 113.968C145.71 114.395 146.286 114.608 146.969 114.608C147.95 114.608 148.643 114.197 149.049 113.376H151.017C150.75 114.187 150.265 114.853 149.561 115.376C148.867 115.888 148.003 116.144 146.969 116.144C146.126 116.144 145.369 115.957 144.697 115.584C144.035 115.2 143.513 114.667 143.129 113.984C142.755 113.291 142.569 112.491 142.569 111.584C142.569 110.677 142.75 109.883 143.113 109.2C143.486 108.507 144.003 107.973 144.665 107.6C145.337 107.227 146.105 107.04 146.969 107.04C147.801 107.04 148.542 107.221 149.193 107.584C149.843 107.947 150.35 108.459 150.713 109.12C151.075 109.771 151.257 110.523 151.257 111.376ZM149.353 110.8C149.342 110.128 149.102 109.589 148.633 109.184C148.163 108.779 147.582 108.576 146.889 108.576C146.259 108.576 145.721 108.779 145.273 109.184C144.825 109.579 144.558 110.117 144.473 110.8H149.353ZM154.876 104.16V116H153.052V104.16H154.876ZM161.094 116.144C160.262 116.144 159.51 115.957 158.838 115.584C158.166 115.2 157.638 114.667 157.254 113.984C156.87 113.291 156.678 112.491 156.678 111.584C156.678 110.688 156.876 109.893 157.27 109.2C157.665 108.507 158.204 107.973 158.886 107.6C159.569 107.227 160.332 107.04 161.174 107.04C162.017 107.04 162.78 107.227 163.462 107.6C164.145 107.973 164.684 108.507 165.078 109.2C165.473 109.893 165.67 110.688 165.67 111.584C165.67 112.48 165.468 113.275 165.062 113.968C164.657 114.661 164.102 115.2 163.398 115.584C162.705 115.957 161.937 116.144 161.094 116.144ZM161.094 114.56C161.564 114.56 162.001 114.448 162.406 114.224C162.822 114 163.158 113.664 163.414 113.216C163.67 112.768 163.798 112.224 163.798 111.584C163.798 110.944 163.676 110.405 163.43 109.968C163.185 109.52 162.86 109.184 162.454 108.96C162.049 108.736 161.612 108.624 161.142 108.624C160.673 108.624 160.236 108.736 159.83 108.96C159.436 109.184 159.121 109.52 158.886 109.968C158.652 110.405 158.534 110.944 158.534 111.584C158.534 112.533 158.774 113.269 159.254 113.792C159.745 114.304 160.358 114.56 161.094 114.56ZM169.297 108.48C169.607 108.075 170.028 107.733 170.561 107.456C171.095 107.179 171.697 107.04 172.369 107.04C173.137 107.04 173.836 107.232 174.465 107.616C175.105 107.989 175.607 108.517 175.969 109.2C176.332 109.883 176.513 110.667 176.513 111.552C176.513 112.437 176.332 113.232 175.969 113.936C175.607 114.629 175.105 115.173 174.465 115.568C173.836 115.952 173.137 116.144 172.369 116.144C171.697 116.144 171.1 116.011 170.577 115.744C170.055 115.467 169.628 115.125 169.297 114.72V120.192H167.473V107.184H169.297V108.48ZM174.657 111.552C174.657 110.944 174.529 110.421 174.273 109.984C174.028 109.536 173.697 109.2 173.281 108.976C172.876 108.741 172.439 108.624 171.969 108.624C171.511 108.624 171.073 108.741 170.657 108.976C170.252 109.211 169.921 109.552 169.665 110C169.42 110.448 169.297 110.976 169.297 111.584C169.297 112.192 169.42 112.725 169.665 113.184C169.921 113.632 170.252 113.973 170.657 114.208C171.073 114.443 171.511 114.56 171.969 114.56C172.439 114.56 172.876 114.443 173.281 114.208C173.697 113.963 174.028 113.611 174.273 113.152C174.529 112.693 174.657 112.16 174.657 111.552ZM188.989 107.04C189.683 107.04 190.301 107.184 190.845 107.472C191.4 107.76 191.832 108.187 192.141 108.752C192.461 109.317 192.621 110 192.621 110.8V116H190.813V111.072C190.813 110.283 190.616 109.68 190.221 109.264C189.827 108.837 189.288 108.624 188.605 108.624C187.923 108.624 187.379 108.837 186.973 109.264C186.579 109.68 186.381 110.283 186.381 111.072V116H184.573V111.072C184.573 110.283 184.376 109.68 183.981 109.264C183.587 108.837 183.048 108.624 182.365 108.624C181.683 108.624 181.139 108.837 180.733 109.264C180.339 109.68 180.141 110.283 180.141 111.072V116H178.317V107.184H180.141V108.192C180.44 107.829 180.819 107.547 181.277 107.344C181.736 107.141 182.227 107.04 182.749 107.04C183.453 107.04 184.083 107.189 184.637 107.488C185.192 107.787 185.619 108.219 185.917 108.784C186.184 108.251 186.6 107.829 187.165 107.52C187.731 107.2 188.339 107.04 188.989 107.04ZM203.022 111.376C203.022 111.707 203.001 112.005 202.958 112.272H196.222C196.276 112.976 196.537 113.541 197.006 113.968C197.476 114.395 198.052 114.608 198.734 114.608C199.716 114.608 200.409 114.197 200.814 113.376H202.782C202.516 114.187 202.03 114.853 201.326 115.376C200.633 115.888 199.769 116.144 198.734 116.144C197.892 116.144 197.134 115.957 196.462 115.584C195.801 115.2 195.278 114.667 194.894 113.984C194.521 113.291 194.334 112.491 194.334 111.584C194.334 110.677 194.516 109.883 194.878 109.2C195.252 108.507 195.769 107.973 196.43 107.6C197.102 107.227 197.87 107.04 198.734 107.04C199.566 107.04 200.308 107.221 200.958 107.584C201.609 107.947 202.116 108.459 202.478 109.12C202.841 109.771 203.022 110.523 203.022 111.376ZM201.118 110.8C201.108 110.128 200.868 109.589 200.398 109.184C199.929 108.779 199.348 108.576 198.654 108.576C198.025 108.576 197.486 108.779 197.038 109.184C196.59 109.579 196.324 110.117 196.238 110.8H201.118ZM209.265 107.04C209.959 107.04 210.577 107.184 211.121 107.472C211.676 107.76 212.108 108.187 212.417 108.752C212.727 109.317 212.881 110 212.881 110.8V116H211.073V111.072C211.073 110.283 210.876 109.68 210.481 109.264C210.087 108.837 209.548 108.624 208.865 108.624C208.183 108.624 207.639 108.837 207.233 109.264C206.839 109.68 206.641 110.283 206.641 111.072V116H204.817V107.184H206.641V108.192C206.94 107.829 207.319 107.547 207.777 107.344C208.247 107.141 208.743 107.04 209.265 107.04ZM217.336 108.672V113.552C217.336 113.883 217.41 114.123 217.56 114.272C217.72 114.411 217.986 114.48 218.36 114.48H219.48V116H218.04C217.218 116 216.589 115.808 216.152 115.424C215.714 115.04 215.496 114.416 215.496 113.552V108.672H214.456V107.184H215.496V104.992H217.336V107.184H219.48V108.672H217.336Z" fill="white"/>
<g clip-path="url(#clip0_1_140)">
<path d="M101.262 160.974C101.348 160.988 101.435 160.994 101.522 160.993H116.337L116.014 161.144C115.698 161.293 115.411 161.496 115.165 161.745L111.011 165.899C110.464 166.421 110.372 167.262 110.793 167.89C111.283 168.559 112.223 168.705 112.893 168.215C112.947 168.175 112.998 168.132 113.047 168.085L120.559 160.573C121.146 159.986 121.147 159.035 120.56 158.448C120.56 158.447 120.56 158.447 120.559 158.446L113.047 150.934C112.459 150.348 111.508 150.349 110.922 150.937C110.876 150.983 110.833 151.032 110.793 151.084C110.372 151.712 110.464 152.553 111.011 153.075L115.158 157.237C115.378 157.458 115.632 157.643 115.909 157.785L116.36 157.988H101.605C100.837 157.96 100.164 158.496 100.02 159.25C99.8868 160.069 100.443 160.841 101.262 160.974Z" fill="#DC7000"/>
</g>
<circle cx="110.5" cy="32.5" r="32.5" fill="white"/>
<g clip-path="url(#clip1_1_140)">
<path d="M116.744 17.6271H104.256C103.052 17.6271 102.072 18.6072 102.072 19.811V45.1886C102.072 46.3928 103.052 47.3729 104.256 47.3729H116.744C117.948 47.3729 118.928 46.3928 118.928 45.189V19.811C118.928 18.6072 117.948 17.6271 116.744 17.6271ZM103.064 21.5932H117.936V40.4322H103.064V21.5932ZM104.256 18.6186H116.744C117.402 18.6186 117.936 19.1536 117.936 19.811V20.6017H103.064V19.811C103.064 19.1536 103.598 18.6186 104.256 18.6186ZM116.744 46.3814H104.256C103.598 46.3814 103.064 45.8464 103.064 45.189V41.4237H117.936V45.189C117.936 45.8464 117.402 46.3814 116.744 46.3814Z" fill="#DC7000"/>
<path d="M110.5 41.9195C109.406 41.9195 108.517 42.8089 108.517 43.9025C108.517 44.9962 109.406 45.8856 110.5 45.8856C111.594 45.8856 112.483 44.9962 112.483 43.9025C112.483 42.8089 111.594 41.9195 110.5 41.9195ZM110.5 44.8941C109.953 44.8941 109.509 44.4494 109.509 43.9025C109.509 43.3557 109.953 42.911 110.5 42.911C111.047 42.911 111.492 43.3557 111.492 43.9025C111.492 44.4494 111.047 44.8941 110.5 44.8941Z" fill="#DC7000"/>
<path d="M108.517 20.1059H110.5C110.774 20.1059 110.996 19.8843 110.996 19.6102C110.996 19.336 110.774 19.1144 110.5 19.1144H108.517C108.243 19.1144 108.021 19.336 108.021 19.6102C108.021 19.8843 108.243 20.1059 108.517 20.1059Z" fill="#DC7000"/>
<path d="M111.987 20.1059H112.483C112.757 20.1059 112.979 19.8843 112.979 19.6102C112.979 19.336 112.757 19.1144 112.483 19.1144H111.987C111.713 19.1144 111.492 19.336 111.492 19.6102C111.492 19.8843 111.713 20.1059 111.987 20.1059Z" fill="#DC7000"/>
<path d="M123.693 19.8923C123.499 19.6984 123.186 19.6984 122.992 19.8923C122.798 20.0861 122.798 20.3994 122.992 20.5933C124.844 22.4454 124.844 25.4592 122.992 27.3118C122.798 27.5057 122.798 27.819 122.992 28.0128C123.089 28.1095 123.216 28.1581 123.343 28.1581C123.47 28.1581 123.597 28.1095 123.693 28.0128C125.932 25.7745 125.932 22.1311 123.693 19.8923Z" fill="#DC7000"/>
<path d="M121.606 21.0206C121.412 20.8268 121.099 20.8268 120.905 21.0206C120.711 21.2145 120.711 21.5278 120.905 21.7216C121.518 22.3349 121.856 23.1519 121.856 24.0215C121.856 24.891 121.518 25.7076 120.905 26.3208C120.711 26.5147 120.711 26.828 120.905 27.0218C121.001 27.1185 121.128 27.1671 121.255 27.1671C121.382 27.1671 121.509 27.1185 121.606 27.0218C122.406 26.2217 122.847 25.1558 122.847 24.0215C122.847 22.8872 122.407 21.8208 121.606 21.0206Z" fill="#DC7000"/>
<path d="M98.0078 20.5933C98.2017 20.3994 98.2017 20.0861 98.0078 19.8923C97.814 19.6984 97.5007 19.6984 97.3068 19.8923C95.068 22.1311 95.068 25.774 97.3068 28.0128C97.4035 28.1095 97.5304 28.1581 97.6573 28.1581C97.7843 28.1581 97.9112 28.1095 98.0078 28.0128C98.2017 27.819 98.2017 27.5057 98.0078 27.3118C96.1552 25.4597 96.1552 22.4459 98.0078 20.5933Z" fill="#DC7000"/>
<path d="M100.095 20.8838C99.9016 20.6899 99.5883 20.6899 99.3945 20.8838C98.5938 21.6839 98.1531 22.7498 98.1531 23.8841C98.1531 25.0184 98.5938 26.0843 99.3945 26.885C99.4911 26.9817 99.6181 27.0303 99.745 27.0303C99.8719 27.0303 99.9988 26.9817 100.095 26.885C100.289 26.6912 100.289 26.3778 100.095 26.184C99.4822 25.5707 99.1446 24.7537 99.1446 23.8841C99.1446 23.0146 99.4817 22.1981 100.095 21.5848C100.289 21.3914 100.289 21.0776 100.095 20.8838Z" fill="#DC7000"/>
</g>
<defs>
<clipPath id="clip0_1_140">
<rect width="21" height="21" fill="white" transform="matrix(-1 0 0 -1 121 170)"/>
</clipPath>
<clipPath id="clip1_1_140">
<rect width="29.7458" height="29.7458" fill="white" transform="translate(95.6272 17.6271)"/>
</clipPath>
</defs>
</svg>
