<svg width="202" height="170" viewBox="0 0 202 170" fill="none" xmlns="http://www.w3.org/2000/svg">
<path d="M8.976 108.192C8.976 108.757 8.84267 109.291 8.576 109.792C8.30933 110.293 7.88267 110.704 7.296 111.024C6.70933 111.333 5.95733 111.488 5.04 111.488H3.024V116H1.2V104.88H5.04C5.89333 104.88 6.61333 105.029 7.2 105.328C7.79733 105.616 8.24 106.011 8.528 106.512C8.82667 107.013 8.976 107.573 8.976 108.192ZM5.04 110C5.73333 110 6.25067 109.845 6.592 109.536C6.93333 109.216 7.104 108.768 7.104 108.192C7.104 106.976 6.416 106.368 5.04 106.368H3.024V110H5.04ZM14.3796 116.112C13.633 116.112 12.961 115.984 12.3636 115.728C11.7663 115.461 11.297 115.088 10.9556 114.608C10.6143 114.128 10.4436 113.568 10.4436 112.928H12.3956C12.4383 113.408 12.625 113.803 12.9556 114.112C13.297 114.421 13.7716 114.576 14.3796 114.576C15.009 114.576 15.4996 114.427 15.8516 114.128C16.2036 113.819 16.3796 113.424 16.3796 112.944C16.3796 112.571 16.2676 112.267 16.0436 112.032C15.8303 111.797 15.5583 111.616 15.2276 111.488C14.9076 111.36 14.4596 111.221 13.8836 111.072C13.1583 110.88 12.5663 110.688 12.1076 110.496C11.6596 110.293 11.2756 109.984 10.9556 109.568C10.6356 109.152 10.4756 108.597 10.4756 107.904C10.4756 107.264 10.6356 106.704 10.9556 106.224C11.2756 105.744 11.7236 105.376 12.2996 105.12C12.8756 104.864 13.5423 104.736 14.2996 104.736C15.377 104.736 16.257 105.008 16.9396 105.552C17.633 106.085 18.017 106.821 18.0916 107.76H16.0756C16.0436 107.355 15.8516 107.008 15.4996 106.72C15.1476 106.432 14.6836 106.288 14.1076 106.288C13.585 106.288 13.1583 106.421 12.8276 106.688C12.497 106.955 12.3316 107.339 12.3316 107.84C12.3316 108.181 12.433 108.464 12.6356 108.688C12.849 108.901 13.1156 109.072 13.4356 109.2C13.7556 109.328 14.193 109.467 14.7476 109.616C15.4836 109.819 16.081 110.021 16.5396 110.224C17.009 110.427 17.4036 110.741 17.7236 111.168C18.0543 111.584 18.2196 112.144 18.2196 112.848C18.2196 113.413 18.065 113.947 17.7556 114.448C17.457 114.949 17.0143 115.355 16.4276 115.664C15.8516 115.963 15.169 116.112 14.3796 116.112ZM19.9079 113.568V112.192L25.2839 104.48H27.4919V111.984H28.9799V113.568H27.4919V116H25.6999V113.568H19.9079ZM25.7799 106.336L22.0039 111.984H25.7799V106.336ZM42.9355 108.08C42.6475 107.525 42.2475 107.109 41.7355 106.832C41.2235 106.544 40.6315 106.4 39.9595 106.4C39.2235 106.4 38.5675 106.565 37.9915 106.896C37.4155 107.227 36.9622 107.696 36.6315 108.304C36.3115 108.912 36.1515 109.616 36.1515 110.416C36.1515 111.216 36.3115 111.925 36.6315 112.544C36.9622 113.152 37.4155 113.621 37.9915 113.952C38.5675 114.283 39.2235 114.448 39.9595 114.448C40.9515 114.448 41.7568 114.171 42.3755 113.616C42.9942 113.061 43.3728 112.309 43.5115 111.36H39.3355V109.904H45.4635V111.328C45.3462 112.192 45.0368 112.987 44.5355 113.712C44.0448 114.437 43.3995 115.019 42.5995 115.456C41.8102 115.883 40.9302 116.096 39.9595 116.096C38.9142 116.096 37.9595 115.856 37.0955 115.376C36.2315 114.885 35.5435 114.208 35.0315 113.344C34.5302 112.48 34.2795 111.504 34.2795 110.416C34.2795 109.328 34.5302 108.352 35.0315 107.488C35.5435 106.624 36.2315 105.952 37.0955 105.472C37.9702 104.981 38.9248 104.736 39.9595 104.736C41.1435 104.736 42.1942 105.029 43.1115 105.616C44.0395 106.192 44.7115 107.013 45.1275 108.08H42.9355ZM46.6545 111.552C46.6545 110.667 46.8358 109.883 47.1985 109.2C47.5718 108.517 48.0732 107.989 48.7025 107.616C49.3425 107.232 50.0465 107.04 50.8145 107.04C51.5078 107.04 52.1105 107.179 52.6225 107.456C53.1452 107.723 53.5612 108.059 53.8705 108.464V107.184H55.7105V116H53.8705V114.688C53.5612 115.104 53.1398 115.451 52.6065 115.728C52.0732 116.005 51.4652 116.144 50.7825 116.144C50.0252 116.144 49.3318 115.952 48.7025 115.568C48.0732 115.173 47.5718 114.629 47.1985 113.936C46.8358 113.232 46.6545 112.437 46.6545 111.552ZM53.8705 111.584C53.8705 110.976 53.7425 110.448 53.4865 110C53.2412 109.552 52.9158 109.211 52.5105 108.976C52.1052 108.741 51.6678 108.624 51.1985 108.624C50.7292 108.624 50.2918 108.741 49.8865 108.976C49.4812 109.2 49.1505 109.536 48.8945 109.984C48.6492 110.421 48.5265 110.944 48.5265 111.552C48.5265 112.16 48.6492 112.693 48.8945 113.152C49.1505 113.611 49.4812 113.963 49.8865 114.208C50.3025 114.443 50.7398 114.56 51.1985 114.56C51.6678 114.56 52.1052 114.443 52.5105 114.208C52.9158 113.973 53.2412 113.632 53.4865 113.184C53.7425 112.725 53.8705 112.192 53.8705 111.584ZM68.7783 107.04C69.4716 107.04 70.0903 107.184 70.6343 107.472C71.1889 107.76 71.6209 108.187 71.9303 108.752C72.2503 109.317 72.4103 110 72.4103 110.8V116H70.6023V111.072C70.6023 110.283 70.4049 109.68 70.0103 109.264C69.6156 108.837 69.0769 108.624 68.3943 108.624C67.7116 108.624 67.1676 108.837 66.7623 109.264C66.3676 109.68 66.1703 110.283 66.1703 111.072V116H64.3623V111.072C64.3623 110.283 64.1649 109.68 63.7703 109.264C63.3756 108.837 62.8369 108.624 62.1543 108.624C61.4716 108.624 60.9276 108.837 60.5223 109.264C60.1276 109.68 59.9303 110.283 59.9303 111.072V116H58.1063V107.184H59.9303V108.192C60.2289 107.829 60.6076 107.547 61.0663 107.344C61.5249 107.141 62.0156 107.04 62.5383 107.04C63.2423 107.04 63.8716 107.189 64.4263 107.488C64.9809 107.787 65.4076 108.219 65.7063 108.784C65.9729 108.251 66.3889 107.829 66.9543 107.52C67.5196 107.2 68.1276 107.04 68.7783 107.04ZM82.8113 111.376C82.8113 111.707 82.7899 112.005 82.7473 112.272H76.0113C76.0646 112.976 76.3259 113.541 76.7953 113.968C77.2646 114.395 77.8406 114.608 78.5233 114.608C79.5046 114.608 80.1979 114.197 80.6033 113.376H82.5712C82.3046 114.187 81.8193 114.853 81.1153 115.376C80.4219 115.888 79.5579 116.144 78.5233 116.144C77.6806 116.144 76.9233 115.957 76.2513 115.584C75.5899 115.2 75.0673 114.667 74.6833 113.984C74.3099 113.291 74.1233 112.491 74.1233 111.584C74.1233 110.677 74.3046 109.883 74.6673 109.2C75.0406 108.507 75.5579 107.973 76.2193 107.6C76.8913 107.227 77.6593 107.04 78.5233 107.04C79.3553 107.04 80.0966 107.221 80.7473 107.584C81.3979 107.947 81.9046 108.459 82.2673 109.12C82.6299 109.771 82.8113 110.523 82.8113 111.376ZM80.9073 110.8C80.8966 110.128 80.6566 109.589 80.1873 109.184C79.7179 108.779 79.1366 108.576 78.4433 108.576C77.8139 108.576 77.2753 108.779 76.8273 109.184C76.3793 109.579 76.1126 110.117 76.0273 110.8H80.9073ZM92.3945 104.88C93.5785 104.88 94.6132 105.109 95.4985 105.568C96.3945 106.016 97.0825 106.667 97.5625 107.52C98.0532 108.363 98.2985 109.349 98.2985 110.48C98.2985 111.611 98.0532 112.592 97.5625 113.424C97.0825 114.256 96.3945 114.896 95.4985 115.344C94.6132 115.781 93.5785 116 92.3945 116H88.7625V104.88H92.3945ZM92.3945 114.512C93.6958 114.512 94.6932 114.16 95.3865 113.456C96.0798 112.752 96.4265 111.76 96.4265 110.48C96.4265 109.189 96.0798 108.181 95.3865 107.456C94.6932 106.731 93.6958 106.368 92.3945 106.368H90.5865V114.512H92.3945ZM108.186 111.376C108.186 111.707 108.165 112.005 108.122 112.272H101.386C101.44 112.976 101.701 113.541 102.17 113.968C102.64 114.395 103.216 114.608 103.898 114.608C104.88 114.608 105.573 114.197 105.978 113.376H107.946C107.68 114.187 107.194 114.853 106.49 115.376C105.797 115.888 104.933 116.144 103.898 116.144C103.056 116.144 102.298 115.957 101.626 115.584C100.965 115.2 100.442 114.667 100.058 113.984C99.6849 113.291 99.4983 112.491 99.4983 111.584C99.4983 110.677 99.6796 109.883 100.042 109.2C100.416 108.507 100.933 107.973 101.594 107.6C102.266 107.227 103.034 107.04 103.898 107.04C104.73 107.04 105.472 107.221 106.122 107.584C106.773 107.947 107.28 108.459 107.642 109.12C108.005 109.771 108.186 110.523 108.186 111.376ZM106.282 110.8C106.272 110.128 106.032 109.589 105.562 109.184C105.093 108.779 104.512 108.576 103.818 108.576C103.189 108.576 102.65 108.779 102.202 109.184C101.754 109.579 101.488 110.117 101.402 110.8H106.282ZM113.389 114.368L115.885 107.184H117.821L114.461 116H112.285L108.941 107.184H110.893L113.389 114.368ZM127.28 111.376C127.28 111.707 127.259 112.005 127.216 112.272H120.48C120.533 112.976 120.795 113.541 121.264 113.968C121.733 114.395 122.309 114.608 122.992 114.608C123.973 114.608 124.667 114.197 125.072 113.376H127.04C126.773 114.187 126.288 114.853 125.584 115.376C124.891 115.888 124.027 116.144 122.992 116.144C122.149 116.144 121.392 115.957 120.72 115.584C120.059 115.2 119.536 114.667 119.152 113.984C118.779 113.291 118.592 112.491 118.592 111.584C118.592 110.677 118.773 109.883 119.136 109.2C119.509 108.507 120.027 107.973 120.688 107.6C121.36 107.227 122.128 107.04 122.992 107.04C123.824 107.04 124.565 107.221 125.216 107.584C125.867 107.947 126.373 108.459 126.736 109.12C127.099 109.771 127.28 110.523 127.28 111.376ZM125.376 110.8C125.365 110.128 125.125 109.589 124.656 109.184C124.187 108.779 123.605 108.576 122.912 108.576C122.283 108.576 121.744 108.779 121.296 109.184C120.848 109.579 120.581 110.117 120.496 110.8H125.376ZM130.899 104.16V116H129.075V104.16H130.899ZM137.118 116.144C136.286 116.144 135.534 115.957 134.862 115.584C134.19 115.2 133.662 114.667 133.278 113.984C132.894 113.291 132.702 112.491 132.702 111.584C132.702 110.688 132.899 109.893 133.294 109.2C133.688 108.507 134.227 107.973 134.91 107.6C135.592 107.227 136.355 107.04 137.198 107.04C138.04 107.04 138.803 107.227 139.486 107.6C140.168 107.973 140.707 108.507 141.102 109.2C141.496 109.893 141.694 110.688 141.694 111.584C141.694 112.48 141.491 113.275 141.086 113.968C140.68 114.661 140.126 115.2 139.422 115.584C138.728 115.957 137.96 116.144 137.118 116.144ZM137.118 114.56C137.587 114.56 138.024 114.448 138.43 114.224C138.846 114 139.182 113.664 139.438 113.216C139.694 112.768 139.822 112.224 139.822 111.584C139.822 110.944 139.699 110.405 139.454 109.968C139.208 109.52 138.883 109.184 138.478 108.96C138.072 108.736 137.635 108.624 137.166 108.624C136.696 108.624 136.259 108.736 135.854 108.96C135.459 109.184 135.144 109.52 134.91 109.968C134.675 110.405 134.558 110.944 134.558 111.584C134.558 112.533 134.798 113.269 135.278 113.792C135.768 114.304 136.382 114.56 137.118 114.56ZM145.321 108.48C145.63 108.075 146.052 107.733 146.585 107.456C147.118 107.179 147.721 107.04 148.393 107.04C149.161 107.04 149.86 107.232 150.489 107.616C151.129 107.989 151.63 108.517 151.993 109.2C152.356 109.883 152.537 110.667 152.537 111.552C152.537 112.437 152.356 113.232 151.993 113.936C151.63 114.629 151.129 115.173 150.489 115.568C149.86 115.952 149.161 116.144 148.393 116.144C147.721 116.144 147.124 116.011 146.601 115.744C146.078 115.467 145.652 115.125 145.321 114.72V120.192H143.497V107.184H145.321V108.48ZM150.681 111.552C150.681 110.944 150.553 110.421 150.297 109.984C150.052 109.536 149.721 109.2 149.305 108.976C148.9 108.741 148.462 108.624 147.993 108.624C147.534 108.624 147.097 108.741 146.681 108.976C146.276 109.211 145.945 109.552 145.689 110C145.444 110.448 145.321 110.976 145.321 111.584C145.321 112.192 145.444 112.725 145.689 113.184C145.945 113.632 146.276 113.973 146.681 114.208C147.097 114.443 147.534 114.56 147.993 114.56C148.462 114.56 148.9 114.443 149.305 114.208C149.721 113.963 150.052 113.611 150.297 113.152C150.553 112.693 150.681 112.16 150.681 111.552ZM165.013 107.04C165.706 107.04 166.325 107.184 166.869 107.472C167.423 107.76 167.855 108.187 168.165 108.752C168.485 109.317 168.645 110 168.645 110.8V116H166.837V111.072C166.837 110.283 166.639 109.68 166.245 109.264C165.85 108.837 165.311 108.624 164.629 108.624C163.946 108.624 163.402 108.837 162.997 109.264C162.602 109.68 162.405 110.283 162.405 111.072V116H160.597V111.072C160.597 110.283 160.399 109.68 160.005 109.264C159.61 108.837 159.071 108.624 158.389 108.624C157.706 108.624 157.162 108.837 156.757 109.264C156.362 109.68 156.165 110.283 156.165 111.072V116H154.341V107.184H156.165V108.192C156.463 107.829 156.842 107.547 157.301 107.344C157.759 107.141 158.25 107.04 158.773 107.04C159.477 107.04 160.106 107.189 160.661 107.488C161.215 107.787 161.642 108.219 161.941 108.784C162.207 108.251 162.623 107.829 163.189 107.52C163.754 107.2 164.362 107.04 165.013 107.04ZM179.046 111.376C179.046 111.707 179.024 112.005 178.982 112.272H172.246C172.299 112.976 172.56 113.541 173.03 113.968C173.499 114.395 174.075 114.608 174.758 114.608C175.739 114.608 176.432 114.197 176.838 113.376H178.806C178.539 114.187 178.054 114.853 177.35 115.376C176.656 115.888 175.792 116.144 174.758 116.144C173.915 116.144 173.158 115.957 172.486 115.584C171.824 115.2 171.302 114.667 170.918 113.984C170.544 113.291 170.358 112.491 170.358 111.584C170.358 110.677 170.539 109.883 170.902 109.2C171.275 108.507 171.792 107.973 172.454 107.6C173.126 107.227 173.894 107.04 174.758 107.04C175.59 107.04 176.331 107.221 176.982 107.584C177.632 107.947 178.139 108.459 178.502 109.12C178.864 109.771 179.046 110.523 179.046 111.376ZM177.142 110.8C177.131 110.128 176.891 109.589 176.422 109.184C175.952 108.779 175.371 108.576 174.678 108.576C174.048 108.576 173.51 108.779 173.062 109.184C172.614 109.579 172.347 110.117 172.262 110.8H177.142ZM185.289 107.04C185.982 107.04 186.601 107.184 187.145 107.472C187.699 107.76 188.131 108.187 188.441 108.752C188.75 109.317 188.905 110 188.905 110.8V116H187.097V111.072C187.097 110.283 186.899 109.68 186.505 109.264C186.11 108.837 185.571 108.624 184.889 108.624C184.206 108.624 183.662 108.837 183.257 109.264C182.862 109.68 182.665 110.283 182.665 111.072V116H180.841V107.184H182.665V108.192C182.963 107.829 183.342 107.547 183.801 107.344C184.27 107.141 184.766 107.04 185.289 107.04ZM193.359 108.672V113.552C193.359 113.883 193.434 114.123 193.583 114.272C193.743 114.411 194.01 114.48 194.383 114.48H195.503V116H194.063C193.242 116 192.613 115.808 192.175 115.424C191.738 115.04 191.519 114.416 191.519 113.552V108.672H190.479V107.184H191.519V104.992H193.359V107.184H195.503V108.672H193.359Z" fill="white"/>
<g clip-path="url(#clip0_1_182)">
<path d="M92.2622 160.974C92.3481 160.988 92.4351 160.994 92.5221 160.993H107.337L107.014 161.144C106.698 161.293 106.411 161.496 106.165 161.745L102.011 165.899C101.464 166.421 101.372 167.262 101.793 167.89C102.283 168.559 103.223 168.705 103.893 168.215C103.947 168.175 103.998 168.132 104.047 168.085L111.559 160.573C112.146 159.986 112.147 159.035 111.56 158.448C111.56 158.447 111.56 158.447 111.559 158.446L104.047 150.934C103.459 150.348 102.508 150.349 101.922 150.937C101.876 150.983 101.833 151.032 101.793 151.084C101.372 151.712 101.464 152.553 102.011 153.075L106.158 157.237C106.378 157.458 106.632 157.643 106.909 157.785L107.36 157.988H92.6048C91.8372 157.96 91.1638 158.496 91.0196 159.25C90.8868 160.069 91.4431 160.841 92.2622 160.974Z" fill="#DC7000"/>
</g>
<circle cx="101.5" cy="32.5" r="32.5" fill="white"/>
<g clip-path="url(#clip1_1_182)">
<path d="M90.4057 27.2411H82.2205V29.565H90.4057C91.0464 29.565 91.5677 30.0863 91.5677 30.727C91.5677 31.3676 91.0464 31.8889 90.4057 31.8889H85.7063C83.7842 31.8889 82.2205 33.4526 82.2205 35.3747V38.8606H84.5443V35.3747C84.5443 34.734 85.0656 34.2128 85.7063 34.2128H90.4057C92.3278 34.2128 93.8916 32.649 93.8916 30.727C93.8916 28.8049 92.3278 27.2411 90.4057 27.2411Z" fill="#DC7000"/>
<path d="M102.632 27.2411C100.71 27.2411 99.146 28.8049 99.146 30.727V35.3747C99.146 36.0154 98.6247 36.5367 97.984 36.5367H92.7295V38.8606H97.984C99.9061 38.8606 101.47 37.2968 101.47 35.3747V30.727C101.47 30.0863 101.991 29.565 102.632 29.565H107.886V27.2411H102.632Z" fill="#DC7000"/>
<path d="M119.558 34.2126V29.565C119.558 28.2836 118.515 27.2411 117.234 27.2411C116.794 27.2411 116.365 27.3651 115.994 27.5995L108.635 32.2472C107.956 32.6758 107.551 33.4106 107.551 34.2128C107.551 35.4942 108.593 36.5367 109.875 36.5367H117.234V38.8606H119.558V36.5367H121.881V34.2128L119.558 34.2126ZM117.234 34.2126L109.876 34.2121L117.234 29.565V34.2126Z" fill="#DC7000"/>
</g>
<defs>
<clipPath id="clip0_1_182">
<rect width="21" height="21" fill="white" transform="matrix(-1 0 0 -1 112 170)"/>
</clipPath>
<clipPath id="clip1_1_182">
<rect width="39.661" height="39.661" fill="white" transform="translate(82.2205 13.2203)"/>
</clipPath>
</defs>
</svg>
