<svg width="327" height="168" viewBox="0 0 327 168" fill="none" xmlns="http://www.w3.org/2000/svg">
<path d="M7.904 113.728H3.248L2.448 116H0.544L4.528 104.864H6.64L10.624 116H8.704L7.904 113.728ZM7.392 112.24L5.584 107.072L3.76 112.24H7.392ZM18.1323 116L15.5723 111.552H14.1803V116H12.3563V104.88H16.1963C17.0496 104.88 17.7696 105.029 18.3563 105.328C18.9536 105.627 19.3963 106.027 19.6843 106.528C19.9829 107.029 20.1323 107.589 20.1323 108.208C20.1323 108.933 19.9189 109.595 19.4923 110.192C19.0763 110.779 18.4309 111.179 17.5563 111.392L20.3083 116H18.1323ZM14.1803 110.096H16.1963C16.8789 110.096 17.3909 109.925 17.7323 109.584C18.0843 109.243 18.2603 108.784 18.2603 108.208C18.2603 107.632 18.0896 107.184 17.7483 106.864C17.4069 106.533 16.8896 106.368 16.1963 106.368H14.1803V110.096ZM28.3856 100.896L24.0336 118.8H22.2416L26.5776 100.896H28.3856ZM44.4246 104.88L40.2486 116H38.1366L33.9446 104.88H35.8966L39.1926 114.128L42.5046 104.88H44.4246ZM51.726 116L49.166 111.552H47.774V116H45.95V104.88H49.79C50.6433 104.88 51.3633 105.029 51.95 105.328C52.5473 105.627 52.99 106.027 53.278 106.528C53.5767 107.029 53.726 107.589 53.726 108.208C53.726 108.933 53.5127 109.595 53.086 110.192C52.67 110.779 52.0247 111.179 51.15 111.392L53.902 116H51.726ZM47.774 110.096H49.79C50.4727 110.096 50.9847 109.925 51.326 109.584C51.678 109.243 51.854 108.784 51.854 108.208C51.854 107.632 51.6833 107.184 51.342 106.864C51.0007 106.533 50.4833 106.368 49.79 106.368H47.774V110.096ZM59.6076 111.552C59.6076 110.667 59.789 109.883 60.1516 109.2C60.525 108.517 61.0263 107.989 61.6556 107.616C62.2956 107.232 63.005 107.04 63.7836 107.04C64.3596 107.04 64.925 107.168 65.4796 107.424C66.045 107.669 66.493 108 66.8236 108.416V104.16H68.6636V116H66.8236V114.672C66.525 115.099 66.109 115.451 65.5756 115.728C65.053 116.005 64.4503 116.144 63.7676 116.144C62.9996 116.144 62.2956 115.952 61.6556 115.568C61.0263 115.173 60.525 114.629 60.1516 113.936C59.789 113.232 59.6076 112.437 59.6076 111.552ZM66.8236 111.584C66.8236 110.976 66.6956 110.448 66.4396 110C66.1943 109.552 65.869 109.211 65.4636 108.976C65.0583 108.741 64.621 108.624 64.1516 108.624C63.6823 108.624 63.245 108.741 62.8396 108.976C62.4343 109.2 62.1036 109.536 61.8476 109.984C61.6023 110.421 61.4796 110.944 61.4796 111.552C61.4796 112.16 61.6023 112.693 61.8476 113.152C62.1036 113.611 62.4343 113.963 62.8396 114.208C63.2556 114.443 63.693 114.56 64.1516 114.56C64.621 114.56 65.0583 114.443 65.4636 114.208C65.869 113.973 66.1943 113.632 66.4396 113.184C66.6956 112.725 66.8236 112.192 66.8236 111.584ZM79.1394 111.376C79.1394 111.707 79.118 112.005 79.0754 112.272H72.3394C72.3927 112.976 72.654 113.541 73.1234 113.968C73.5927 114.395 74.1687 114.608 74.8514 114.608C75.8327 114.608 76.526 114.197 76.9314 113.376H78.8994C78.6327 114.187 78.1474 114.853 77.4434 115.376C76.75 115.888 75.886 116.144 74.8514 116.144C74.0087 116.144 73.2514 115.957 72.5794 115.584C71.918 115.2 71.3954 114.667 71.0114 113.984C70.638 113.291 70.4514 112.491 70.4514 111.584C70.4514 110.677 70.6327 109.883 70.9954 109.2C71.3687 108.507 71.886 107.973 72.5474 107.6C73.2194 107.227 73.9874 107.04 74.8514 107.04C75.6834 107.04 76.4247 107.221 77.0754 107.584C77.726 107.947 78.2327 108.459 78.5954 109.12C78.958 109.771 79.1394 110.523 79.1394 111.376ZM77.2354 110.8C77.2247 110.128 76.9847 109.589 76.5154 109.184C76.046 108.779 75.4647 108.576 74.7714 108.576C74.142 108.576 73.6034 108.779 73.1554 109.184C72.7074 109.579 72.4407 110.117 72.3554 110.8H77.2354ZM84.1344 116.144C83.441 116.144 82.817 116.021 82.2624 115.776C81.7184 115.52 81.2864 115.179 80.9664 114.752C80.6464 114.315 80.4757 113.829 80.4544 113.296H82.3424C82.3744 113.669 82.5504 113.984 82.8704 114.24C83.201 114.485 83.6117 114.608 84.1024 114.608C84.6144 114.608 85.009 114.512 85.2864 114.32C85.5744 114.117 85.7184 113.861 85.7184 113.552C85.7184 113.221 85.5584 112.976 85.2384 112.816C84.929 112.656 84.433 112.48 83.7504 112.288C83.089 112.107 82.5504 111.931 82.1344 111.76C81.7184 111.589 81.3557 111.328 81.0464 110.976C80.7477 110.624 80.5984 110.16 80.5984 109.584C80.5984 109.115 80.737 108.688 81.0144 108.304C81.2917 107.909 81.6864 107.6 82.1984 107.376C82.721 107.152 83.3184 107.04 83.9904 107.04C84.993 107.04 85.7984 107.296 86.4064 107.808C87.025 108.309 87.3557 108.997 87.3984 109.872H85.5744C85.5424 109.477 85.3824 109.163 85.0944 108.928C84.8064 108.693 84.417 108.576 83.9264 108.576C83.4464 108.576 83.0784 108.667 82.8224 108.848C82.5664 109.029 82.4384 109.269 82.4384 109.568C82.4384 109.803 82.5237 110 82.6944 110.16C82.865 110.32 83.073 110.448 83.3184 110.544C83.5637 110.629 83.9264 110.741 84.4064 110.88C85.0464 111.051 85.569 111.227 85.9744 111.408C86.3904 111.579 86.7477 111.835 87.0464 112.176C87.345 112.517 87.4997 112.971 87.5104 113.536C87.5104 114.037 87.3717 114.485 87.0944 114.88C86.817 115.275 86.4224 115.584 85.9104 115.808C85.409 116.032 84.817 116.144 84.1344 116.144ZM90.4093 106.016C90.0786 106.016 89.8013 105.904 89.5773 105.68C89.3533 105.456 89.2413 105.179 89.2413 104.848C89.2413 104.517 89.3533 104.24 89.5773 104.016C89.8013 103.792 90.0786 103.68 90.4093 103.68C90.7293 103.68 91.0013 103.792 91.2253 104.016C91.4493 104.24 91.5613 104.517 91.5613 104.848C91.5613 105.179 91.4493 105.456 91.2253 105.68C91.0013 105.904 90.7293 106.016 90.4093 106.016ZM91.3053 107.184V116H89.4813V107.184H91.3053ZM97.252 107.04C97.9347 107.04 98.5373 107.179 99.06 107.456C99.5933 107.723 100.009 108.059 100.308 108.464V107.184H102.148V116.144C102.148 116.955 101.977 117.675 101.636 118.304C101.295 118.944 100.799 119.445 100.148 119.808C99.508 120.171 98.74 120.352 97.844 120.352C96.6493 120.352 95.6573 120.069 94.868 119.504C94.0787 118.949 93.6307 118.192 93.524 117.232H95.332C95.4707 117.691 95.764 118.059 96.212 118.336C96.6707 118.624 97.2147 118.768 97.844 118.768C98.58 118.768 99.172 118.544 99.62 118.096C100.079 117.648 100.308 116.997 100.308 116.144V114.672C99.9987 115.088 99.5773 115.44 99.044 115.728C98.5213 116.005 97.924 116.144 97.252 116.144C96.484 116.144 95.78 115.952 95.14 115.568C94.5107 115.173 94.0093 114.629 93.636 113.936C93.2733 113.232 93.092 112.437 93.092 111.552C93.092 110.667 93.2733 109.883 93.636 109.2C94.0093 108.517 94.5107 107.989 95.14 107.616C95.78 107.232 96.484 107.04 97.252 107.04ZM100.308 111.584C100.308 110.976 100.18 110.448 99.924 110C99.6787 109.552 99.3533 109.211 98.948 108.976C98.5427 108.741 98.1053 108.624 97.636 108.624C97.1667 108.624 96.7293 108.741 96.324 108.976C95.9187 109.2 95.588 109.536 95.332 109.984C95.0867 110.421 94.964 110.944 94.964 111.552C94.964 112.16 95.0867 112.693 95.332 113.152C95.588 113.611 95.9187 113.963 96.324 114.208C96.74 114.443 97.1773 114.56 97.636 114.56C98.1053 114.56 98.5427 114.443 98.948 114.208C99.3533 113.973 99.6787 113.632 99.924 113.184C100.18 112.725 100.308 112.192 100.308 111.584ZM108.992 107.04C109.685 107.04 110.304 107.184 110.848 107.472C111.402 107.76 111.834 108.187 112.144 108.752C112.453 109.317 112.608 110 112.608 110.8V116H110.8V111.072C110.8 110.283 110.602 109.68 110.208 109.264C109.813 108.837 109.274 108.624 108.592 108.624C107.909 108.624 107.365 108.837 106.96 109.264C106.565 109.68 106.368 110.283 106.368 111.072V116H104.544V107.184H106.368V108.192C106.666 107.829 107.045 107.547 107.504 107.344C107.973 107.141 108.469 107.04 108.992 107.04Z" fill="white"/>
<g clip-path="url(#clip0_1_214)">
<path d="M48.2622 159.974C48.3481 159.988 48.4351 159.994 48.5221 159.993H63.3372L63.0141 160.144C62.6984 160.293 62.4111 160.496 62.1652 160.745L58.0107 164.899C57.4635 165.421 57.3716 166.262 57.7928 166.89C58.2831 167.559 59.2232 167.705 59.8928 167.215C59.9469 167.175 59.9983 167.132 60.0466 167.085L67.5593 159.573C68.1464 158.986 68.147 158.035 67.5605 157.448C67.5601 157.447 67.5597 157.447 67.5593 157.446L60.0466 149.934C59.459 149.348 58.5077 149.349 57.9217 149.937C57.8756 149.983 57.8325 150.032 57.7928 150.084C57.3716 150.712 57.4635 151.553 58.0107 152.075L62.1577 156.237C62.3781 156.458 62.6316 156.643 62.909 156.785L63.3597 156.988H48.6048C47.8372 156.96 47.1638 157.496 47.0196 158.25C46.8868 159.069 47.4431 159.841 48.2622 159.974Z" fill="#DC7000"/>
</g>
<circle cx="57.5" cy="32.5" r="32.5" fill="white"/>
<g clip-path="url(#clip1_1_214)">
<path d="M70.7203 18.1779H45.3813C43.2528 18.1803 41.5278 19.9053 41.5254 22.0338V44.0677C41.5278 46.1963 43.2528 47.9213 45.3813 47.9237H70.7203C72.8489 47.9213 74.5738 46.1963 74.5762 44.0677V22.0338C74.5738 19.9053 72.8489 18.1803 70.7203 18.1779ZM73.4745 44.0677C73.4727 45.5881 72.2407 46.8202 70.7203 46.822H45.3813C43.861 46.8202 42.6289 45.5881 42.6271 44.0677V22.0338C42.6289 20.5135 43.861 19.2814 45.3813 19.2796H70.7203C72.2407 19.2814 73.4727 20.5135 73.4745 22.0338V44.0677Z" fill="#DC7000"/>
<path d="M70.7203 22.5847H45.3813C44.4686 22.5847 43.7288 23.3246 43.7288 24.2372V44.0677C43.7288 44.9804 44.4686 45.7203 45.3813 45.7203H70.7203C71.633 45.7203 72.3728 44.9804 72.3728 44.0677V24.2372C72.3728 23.3246 71.633 22.5847 70.7203 22.5847ZM58.0508 33.5267L52.0515 30.2966L58.0508 27.0664L64.0501 30.2966L58.0508 33.5267ZM64.661 31.2187V37.6779L58.6016 40.9422V34.483L64.661 31.2187ZM57.4999 34.483V40.9422L51.4406 37.6779V31.2187L57.4999 34.483ZM44.8305 24.2372C44.8305 23.933 45.0771 23.6864 45.3813 23.6864H57.4999V26.1101L50.6287 29.8118C50.6215 29.8157 50.6133 29.8173 50.6061 29.8217C50.4395 29.9218 50.338 30.1022 50.3389 30.2966V34.9138L44.8305 37.668V24.2372ZM71.2711 44.0677C71.2711 44.372 71.0245 44.6186 70.7203 44.6186H45.3813C45.0771 44.6186 44.8305 44.372 44.8305 44.0677V38.8997L50.3389 36.1454V38.0084C50.339 38.211 50.4503 38.3971 50.6287 38.4932L57.7897 42.3491C57.9527 42.4368 58.1489 42.4368 58.3119 42.3491L65.4729 38.4932C65.6513 38.3971 65.7626 38.211 65.7627 38.0084V36.1454L71.2711 38.8997V44.0677ZM71.2711 37.668L65.7627 34.9138V30.2966C65.7626 30.1028 65.6607 29.9233 65.4944 29.8239C65.4872 29.8195 65.479 29.8179 65.4718 29.814L58.6016 26.1101V23.6864H70.7203C71.0245 23.6864 71.2711 23.933 71.2711 24.2372V37.668Z" fill="#DC7000"/>
<path d="M44.8304 21.483C45.1346 21.483 45.3812 21.2364 45.3812 20.9322C45.3812 20.628 45.1346 20.3813 44.8304 20.3813C44.5262 20.3813 44.2795 20.628 44.2795 20.9322C44.2795 21.2364 44.5262 21.483 44.8304 21.483Z" fill="#DC7000"/>
<path d="M47.0338 21.483C47.338 21.483 47.5846 21.2364 47.5846 20.9322C47.5846 20.628 47.338 20.3813 47.0338 20.3813C46.7295 20.3813 46.4829 20.628 46.4829 20.9322C46.4829 21.2364 46.7295 21.483 47.0338 21.483Z" fill="#DC7000"/>
<path d="M49.2371 21.483C49.5413 21.483 49.788 21.2364 49.788 20.9322C49.788 20.628 49.5413 20.3813 49.2371 20.3813C48.9329 20.3813 48.6863 20.628 48.6863 20.9322C48.6863 21.2364 48.9329 21.483 49.2371 21.483Z" fill="#DC7000"/>
<path d="M63.0084 21.483H70.7202C71.0245 21.483 71.2711 21.2364 71.2711 20.9322C71.2711 20.628 71.0245 20.3813 70.7202 20.3813H63.0084C62.7041 20.3813 62.4575 20.628 62.4575 20.9322C62.4575 21.2364 62.7041 21.483 63.0084 21.483Z" fill="#DC7000"/>
</g>
<path d="M217.928 107.216C217.992 106.224 218.371 105.451 219.064 104.896C219.768 104.341 220.664 104.064 221.752 104.064C222.499 104.064 223.144 104.197 223.688 104.464C224.232 104.731 224.643 105.093 224.92 105.552C225.197 106.011 225.336 106.528 225.336 107.104C225.336 107.765 225.16 108.331 224.808 108.8C224.456 109.269 224.035 109.584 223.544 109.744V109.808C224.173 110 224.664 110.352 225.016 110.864C225.368 111.365 225.544 112.011 225.544 112.8C225.544 113.429 225.4 113.989 225.112 114.48C224.824 114.971 224.397 115.36 223.832 115.648C223.267 115.925 222.589 116.064 221.8 116.064C220.648 116.064 219.699 115.771 218.952 115.184C218.216 114.587 217.821 113.733 217.768 112.624H219.528C219.571 113.189 219.789 113.653 220.184 114.016C220.579 114.368 221.112 114.544 221.784 114.544C222.435 114.544 222.936 114.368 223.288 114.016C223.64 113.653 223.816 113.189 223.816 112.624C223.816 111.877 223.576 111.349 223.096 111.04C222.627 110.72 221.901 110.56 220.92 110.56H220.504V109.056H220.936C221.8 109.045 222.456 108.901 222.904 108.624C223.363 108.347 223.592 107.909 223.592 107.312C223.592 106.8 223.427 106.395 223.096 106.096C222.765 105.787 222.296 105.632 221.688 105.632C221.091 105.632 220.627 105.787 220.296 106.096C219.965 106.395 219.768 106.768 219.704 107.216H217.928ZM231.332 104.88C232.516 104.88 233.551 105.109 234.436 105.568C235.332 106.016 236.02 106.667 236.5 107.52C236.991 108.363 237.236 109.349 237.236 110.48C237.236 111.611 236.991 112.592 236.5 113.424C236.02 114.256 235.332 114.896 234.436 115.344C233.551 115.781 232.516 116 231.332 116H227.7V104.88H231.332ZM231.332 114.512C232.633 114.512 233.631 114.16 234.324 113.456C235.017 112.752 235.364 111.76 235.364 110.48C235.364 109.189 235.017 108.181 234.324 107.456C233.631 106.731 232.633 106.368 231.332 106.368H229.524V114.512H231.332ZM254.912 104.88V116H253.088V108.384L249.696 116H248.432L245.024 108.384V116H243.2V104.88H245.168L249.072 113.6L252.96 104.88H254.912ZM261.133 116.144C260.301 116.144 259.549 115.957 258.877 115.584C258.205 115.2 257.677 114.667 257.293 113.984C256.909 113.291 256.717 112.491 256.717 111.584C256.717 110.688 256.915 109.893 257.309 109.2C257.704 108.507 258.243 107.973 258.925 107.6C259.608 107.227 260.371 107.04 261.213 107.04C262.056 107.04 262.819 107.227 263.501 107.6C264.184 107.973 264.723 108.507 265.117 109.2C265.512 109.893 265.709 110.688 265.709 111.584C265.709 112.48 265.507 113.275 265.101 113.968C264.696 114.661 264.141 115.2 263.437 115.584C262.744 115.957 261.976 116.144 261.133 116.144ZM261.133 114.56C261.603 114.56 262.04 114.448 262.445 114.224C262.861 114 263.197 113.664 263.453 113.216C263.709 112.768 263.837 112.224 263.837 111.584C263.837 110.944 263.715 110.405 263.469 109.968C263.224 109.52 262.899 109.184 262.493 108.96C262.088 108.736 261.651 108.624 261.181 108.624C260.712 108.624 260.275 108.736 259.869 108.96C259.475 109.184 259.16 109.52 258.925 109.968C258.691 110.405 258.573 110.944 258.573 111.584C258.573 112.533 258.813 113.269 259.293 113.792C259.784 114.304 260.397 114.56 261.133 114.56ZM266.905 111.552C266.905 110.667 267.086 109.883 267.449 109.2C267.822 108.517 268.323 107.989 268.953 107.616C269.593 107.232 270.302 107.04 271.081 107.04C271.657 107.04 272.222 107.168 272.777 107.424C273.342 107.669 273.79 108 274.121 108.416V104.16H275.961V116H274.121V114.672C273.822 115.099 273.406 115.451 272.873 115.728C272.35 116.005 271.747 116.144 271.065 116.144C270.297 116.144 269.593 115.952 268.953 115.568C268.323 115.173 267.822 114.629 267.449 113.936C267.086 113.232 266.905 112.437 266.905 111.552ZM274.121 111.584C274.121 110.976 273.993 110.448 273.737 110C273.491 109.552 273.166 109.211 272.761 108.976C272.355 108.741 271.918 108.624 271.449 108.624C270.979 108.624 270.542 108.741 270.137 108.976C269.731 109.2 269.401 109.536 269.145 109.984C268.899 110.421 268.777 110.944 268.777 111.552C268.777 112.16 268.899 112.693 269.145 113.152C269.401 113.611 269.731 113.963 270.137 114.208C270.553 114.443 270.99 114.56 271.449 114.56C271.918 114.56 272.355 114.443 272.761 114.208C273.166 113.973 273.491 113.632 273.737 113.184C273.993 112.725 274.121 112.192 274.121 111.584ZM286.436 111.376C286.436 111.707 286.415 112.005 286.372 112.272H279.636C279.69 112.976 279.951 113.541 280.42 113.968C280.89 114.395 281.466 114.608 282.148 114.608C283.13 114.608 283.823 114.197 284.228 113.376H286.196C285.93 114.187 285.444 114.853 284.74 115.376C284.047 115.888 283.183 116.144 282.148 116.144C281.306 116.144 280.548 115.957 279.876 115.584C279.215 115.2 278.692 114.667 278.308 113.984C277.935 113.291 277.748 112.491 277.748 111.584C277.748 110.677 277.93 109.883 278.292 109.2C278.666 108.507 279.183 107.973 279.844 107.6C280.516 107.227 281.284 107.04 282.148 107.04C282.98 107.04 283.722 107.221 284.372 107.584C285.023 107.947 285.53 108.459 285.892 109.12C286.255 109.771 286.436 110.523 286.436 111.376ZM284.532 110.8C284.522 110.128 284.282 109.589 283.812 109.184C283.343 108.779 282.762 108.576 282.068 108.576C281.439 108.576 280.9 108.779 280.452 109.184C280.004 109.579 279.738 110.117 279.652 110.8H284.532ZM290.055 104.16V116H288.231V104.16H290.055ZM293.378 106.016C293.047 106.016 292.77 105.904 292.546 105.68C292.322 105.456 292.21 105.179 292.21 104.848C292.21 104.517 292.322 104.24 292.546 104.016C292.77 103.792 293.047 103.68 293.378 103.68C293.698 103.68 293.97 103.792 294.194 104.016C294.418 104.24 294.53 104.517 294.53 104.848C294.53 105.179 294.418 105.456 294.194 105.68C293.97 105.904 293.698 106.016 293.378 106.016ZM294.274 107.184V116H292.45V107.184H294.274ZM301.117 107.04C301.81 107.04 302.429 107.184 302.973 107.472C303.527 107.76 303.959 108.187 304.269 108.752C304.578 109.317 304.733 110 304.733 110.8V116H302.925V111.072C302.925 110.283 302.727 109.68 302.333 109.264C301.938 108.837 301.399 108.624 300.717 108.624C300.034 108.624 299.49 108.837 299.085 109.264C298.69 109.68 298.493 110.283 298.493 111.072V116H296.669V107.184H298.493V108.192C298.791 107.829 299.17 107.547 299.629 107.344C300.098 107.141 300.594 107.04 301.117 107.04ZM310.611 107.04C311.294 107.04 311.897 107.179 312.419 107.456C312.953 107.723 313.369 108.059 313.667 108.464V107.184H315.507V116.144C315.507 116.955 315.337 117.675 314.995 118.304C314.654 118.944 314.158 119.445 313.507 119.808C312.867 120.171 312.099 120.352 311.203 120.352C310.009 120.352 309.017 120.069 308.227 119.504C307.438 118.949 306.99 118.192 306.883 117.232H308.691C308.83 117.691 309.123 118.059 309.571 118.336C310.03 118.624 310.574 118.768 311.203 118.768C311.939 118.768 312.531 118.544 312.979 118.096C313.438 117.648 313.667 116.997 313.667 116.144V114.672C313.358 115.088 312.937 115.44 312.403 115.728C311.881 116.005 311.283 116.144 310.611 116.144C309.843 116.144 309.139 115.952 308.499 115.568C307.87 115.173 307.369 114.629 306.995 113.936C306.633 113.232 306.451 112.437 306.451 111.552C306.451 110.667 306.633 109.883 306.995 109.2C307.369 108.517 307.87 107.989 308.499 107.616C309.139 107.232 309.843 107.04 310.611 107.04ZM313.667 111.584C313.667 110.976 313.539 110.448 313.283 110C313.038 109.552 312.713 109.211 312.307 108.976C311.902 108.741 311.465 108.624 310.995 108.624C310.526 108.624 310.089 108.741 309.683 108.976C309.278 109.2 308.947 109.536 308.691 109.984C308.446 110.421 308.323 110.944 308.323 111.552C308.323 112.16 308.446 112.693 308.691 113.152C308.947 113.611 309.278 113.963 309.683 114.208C310.099 114.443 310.537 114.56 310.995 114.56C311.465 114.56 311.902 114.443 312.307 114.208C312.713 113.973 313.038 113.632 313.283 113.184C313.539 112.725 313.667 112.192 313.667 111.584ZM321.103 116.144C320.41 116.144 319.786 116.021 319.231 115.776C318.687 115.52 318.255 115.179 317.935 114.752C317.615 114.315 317.444 113.829 317.423 113.296H319.311C319.343 113.669 319.519 113.984 319.839 114.24C320.17 114.485 320.58 114.608 321.071 114.608C321.583 114.608 321.978 114.512 322.255 114.32C322.543 114.117 322.687 113.861 322.687 113.552C322.687 113.221 322.527 112.976 322.207 112.816C321.898 112.656 321.402 112.48 320.719 112.288C320.058 112.107 319.519 111.931 319.103 111.76C318.687 111.589 318.324 111.328 318.015 110.976C317.716 110.624 317.567 110.16 317.567 109.584C317.567 109.115 317.706 108.688 317.983 108.304C318.26 107.909 318.655 107.6 319.167 107.376C319.69 107.152 320.287 107.04 320.959 107.04C321.962 107.04 322.767 107.296 323.375 107.808C323.994 108.309 324.324 108.997 324.367 109.872H322.543C322.511 109.477 322.351 109.163 322.063 108.928C321.775 108.693 321.386 108.576 320.895 108.576C320.415 108.576 320.047 108.667 319.791 108.848C319.535 109.029 319.407 109.269 319.407 109.568C319.407 109.803 319.492 110 319.663 110.16C319.834 110.32 320.042 110.448 320.287 110.544C320.532 110.629 320.895 110.741 321.375 110.88C322.015 111.051 322.538 111.227 322.943 111.408C323.359 111.579 323.716 111.835 324.015 112.176C324.314 112.517 324.468 112.971 324.479 113.536C324.479 114.037 324.34 114.485 324.063 114.88C323.786 115.275 323.391 115.584 322.879 115.808C322.378 116.032 321.786 116.144 321.103 116.144Z" fill="white"/>
<g clip-path="url(#clip2_1_214)">
<path d="M263.262 160.974C263.348 160.988 263.435 160.994 263.522 160.993H278.337L278.014 161.144C277.698 161.293 277.411 161.496 277.165 161.745L273.011 165.899C272.464 166.421 272.372 167.262 272.793 167.89C273.283 168.559 274.223 168.705 274.893 168.215C274.947 168.175 274.998 168.132 275.047 168.085L282.559 160.573C283.146 159.986 283.147 159.035 282.56 158.448C282.56 158.447 282.56 158.447 282.559 158.446L275.047 150.934C274.459 150.348 273.508 150.349 272.922 150.937C272.876 150.983 272.833 151.032 272.793 151.084C272.372 151.712 272.464 152.553 273.011 153.075L277.158 157.237C277.378 157.458 277.632 157.643 277.909 157.785L278.36 157.988H263.605C262.837 157.96 262.164 158.496 262.02 159.25C261.887 160.069 262.443 160.841 263.262 160.974Z" fill="#DC7000"/>
</g>
<circle cx="272.5" cy="32.5" r="32.5" fill="white"/>
<g clip-path="url(#clip3_1_214)">
<path d="M287.352 42.4496L286.691 39.9806C286.605 39.6591 286.274 39.4681 285.953 39.5545C285.631 39.6407 285.44 39.971 285.527 40.2924L285.816 41.3734L281.589 38.9617V28.9385C281.589 28.7229 281.473 28.5236 281.286 28.4162L272.551 23.3938V18.6211L273.33 19.4001C273.565 19.6354 273.946 19.6354 274.182 19.4001C274.417 19.1648 274.417 18.7833 274.182 18.5479L272.374 16.7404C272.139 16.5039 271.753 16.5086 271.522 16.7404L269.715 18.5479C269.479 18.7832 269.479 19.1647 269.715 19.4001C269.95 19.6353 270.331 19.6353 270.567 19.4001L271.346 18.6211V23.3949L262.669 28.417C262.483 28.5247 262.368 28.7235 262.368 28.9385V38.8643L258.081 41.3006L258.371 40.2177C258.457 39.8962 258.266 39.5659 257.945 39.4798C257.623 39.3935 257.293 39.5843 257.207 39.9058L256.545 42.3755C256.462 42.6882 256.649 43.0363 256.989 43.1182L259.44 43.775C259.765 43.8618 260.093 43.6678 260.178 43.349C260.265 43.0276 260.074 42.6972 259.752 42.6111L258.707 42.3309L262.962 39.913L271.68 45.0469C271.867 45.1568 272.099 45.1582 272.287 45.0496L274.497 43.7755C274.786 43.6093 274.885 43.2409 274.718 42.9526C274.552 42.6644 274.184 42.5654 273.895 42.7316L271.989 43.8304L264.171 39.2262L271.91 34.8282L279.799 39.3282L278.592 40.024C278.304 40.1902 278.205 40.5586 278.371 40.8469C278.537 41.1352 278.906 41.2342 279.194 41.0679L281.012 40.02L285.192 42.4047L284.145 42.6852C283.824 42.7713 283.633 43.1017 283.719 43.4231C283.805 43.743 284.134 43.9358 284.457 43.8492L286.872 43.2022C287.217 43.1413 287.445 42.7948 287.352 42.4496ZM280.383 38.2742L272.551 33.8061V24.7838L280.383 29.2871V38.2742ZM263.573 29.286L271.346 24.7873V33.7628L263.573 38.1796V29.286Z" fill="#DC7000"/>
<path d="M276.527 42.4724C276.86 42.4724 277.13 42.2026 277.13 41.8699C277.13 41.5371 276.86 41.2673 276.527 41.2673C276.195 41.2673 275.925 41.5371 275.925 41.8699C275.925 42.2026 276.195 42.4724 276.527 42.4724Z" fill="#DC7000"/>
</g>
<defs>
<clipPath id="clip0_1_214">
<rect width="21" height="21" fill="white" transform="matrix(-1 0 0 -1 68 167)"/>
</clipPath>
<clipPath id="clip1_1_214">
<rect width="33.0508" height="33.0508" fill="white" transform="translate(41.5254 16.5254)"/>
</clipPath>
<clipPath id="clip2_1_214">
<rect width="21" height="21" fill="white" transform="matrix(-1 0 0 -1 283 168)"/>
</clipPath>
<clipPath id="clip3_1_214">
<rect width="30.8475" height="30.8475" fill="white" transform="translate(256.525 15.4237)"/>
</clipPath>
</defs>
</svg>
