<svg width="192" height="170" viewBox="0 0 192 170" fill="none" xmlns="http://www.w3.org/2000/svg">
<path d="M8.976 108.192C8.976 108.757 8.84267 109.291 8.576 109.792C8.30933 110.293 7.88267 110.704 7.296 111.024C6.70933 111.333 5.95733 111.488 5.04 111.488H3.024V116H1.2V104.88H5.04C5.89333 104.88 6.61333 105.029 7.2 105.328C7.79733 105.616 8.24 106.011 8.528 106.512C8.82667 107.013 8.976 107.573 8.976 108.192ZM5.04 110C5.73333 110 6.25067 109.845 6.592 109.536C6.93333 109.216 7.104 108.768 7.104 108.192C7.104 106.976 6.416 106.368 5.04 106.368H3.024V110H5.04ZM10.1076 110.416C10.1076 109.328 10.3583 108.352 10.8596 107.488C11.3716 106.624 12.0596 105.952 12.9236 105.472C13.7983 104.981 14.753 104.736 15.7876 104.736C16.9716 104.736 18.0223 105.029 18.9396 105.616C19.8676 106.192 20.5396 107.013 20.9556 108.08H18.7636C18.4756 107.493 18.0756 107.056 17.5636 106.768C17.0516 106.48 16.4596 106.336 15.7876 106.336C15.0516 106.336 14.3956 106.501 13.8196 106.832C13.2436 107.163 12.7903 107.637 12.4596 108.256C12.1396 108.875 11.9796 109.595 11.9796 110.416C11.9796 111.237 12.1396 111.957 12.4596 112.576C12.7903 113.195 13.2436 113.675 13.8196 114.016C14.3956 114.347 15.0516 114.512 15.7876 114.512C16.4596 114.512 17.0516 114.368 17.5636 114.08C18.0756 113.792 18.4756 113.355 18.7636 112.768H20.9556C20.5396 113.835 19.8676 114.656 18.9396 115.232C18.0223 115.808 16.9716 116.096 15.7876 116.096C14.7423 116.096 13.7876 115.856 12.9236 115.376C12.0596 114.885 11.3716 114.208 10.8596 113.344C10.3583 112.48 10.1076 111.504 10.1076 110.416ZM35.2949 108.08C35.0069 107.525 34.6069 107.109 34.0949 106.832C33.5829 106.544 32.9909 106.4 32.3189 106.4C31.5829 106.4 30.9269 106.565 30.3509 106.896C29.7749 107.227 29.3215 107.696 28.9909 108.304C28.6709 108.912 28.5109 109.616 28.5109 110.416C28.5109 111.216 28.6709 111.925 28.9909 112.544C29.3215 113.152 29.7749 113.621 30.3509 113.952C30.9269 114.283 31.5829 114.448 32.3189 114.448C33.3109 114.448 34.1162 114.171 34.7349 113.616C35.3535 113.061 35.7322 112.309 35.8709 111.36H31.6949V109.904H37.8229V111.328C37.7055 112.192 37.3962 112.987 36.8949 113.712C36.4042 114.437 35.7589 115.019 34.9589 115.456C34.1695 115.883 33.2895 116.096 32.3189 116.096C31.2735 116.096 30.3189 115.856 29.4549 115.376C28.5909 114.885 27.9029 114.208 27.3909 113.344C26.8895 112.48 26.6389 111.504 26.6389 110.416C26.6389 109.328 26.8895 108.352 27.3909 107.488C27.9029 106.624 28.5909 105.952 29.4549 105.472C30.3295 104.981 31.2842 104.736 32.3189 104.736C33.5029 104.736 34.5535 105.029 35.4709 105.616C36.3989 106.192 37.0709 107.013 37.4869 108.08H35.2949ZM39.0139 111.552C39.0139 110.667 39.1952 109.883 39.5579 109.2C39.9312 108.517 40.4325 107.989 41.0619 107.616C41.7019 107.232 42.4059 107.04 43.1739 107.04C43.8672 107.04 44.4699 107.179 44.9819 107.456C45.5045 107.723 45.9205 108.059 46.2299 108.464V107.184H48.0699V116H46.2299V114.688C45.9205 115.104 45.4992 115.451 44.9659 115.728C44.4325 116.005 43.8245 116.144 43.1419 116.144C42.3845 116.144 41.6912 115.952 41.0619 115.568C40.4325 115.173 39.9312 114.629 39.5579 113.936C39.1952 113.232 39.0139 112.437 39.0139 111.552ZM46.2299 111.584C46.2299 110.976 46.1019 110.448 45.8459 110C45.6005 109.552 45.2752 109.211 44.8699 108.976C44.4645 108.741 44.0272 108.624 43.5579 108.624C43.0885 108.624 42.6512 108.741 42.2459 108.976C41.8405 109.2 41.5099 109.536 41.2539 109.984C41.0085 110.421 40.8859 110.944 40.8859 111.552C40.8859 112.16 41.0085 112.693 41.2539 113.152C41.5099 113.611 41.8405 113.963 42.2459 114.208C42.6619 114.443 43.0992 114.56 43.5579 114.56C44.0272 114.56 44.4645 114.443 44.8699 114.208C45.2752 113.973 45.6005 113.632 45.8459 113.184C46.1019 112.725 46.2299 112.192 46.2299 111.584ZM61.1376 107.04C61.831 107.04 62.4496 107.184 62.9936 107.472C63.5483 107.76 63.9803 108.187 64.2896 108.752C64.6096 109.317 64.7696 110 64.7696 110.8V116H62.9616V111.072C62.9616 110.283 62.7643 109.68 62.3696 109.264C61.975 108.837 61.4363 108.624 60.7536 108.624C60.071 108.624 59.527 108.837 59.1216 109.264C58.727 109.68 58.5296 110.283 58.5296 111.072V116H56.7216V111.072C56.7216 110.283 56.5243 109.68 56.1296 109.264C55.735 108.837 55.1963 108.624 54.5136 108.624C53.831 108.624 53.287 108.837 52.8816 109.264C52.487 109.68 52.2896 110.283 52.2896 111.072V116H50.4656V107.184H52.2896V108.192C52.5883 107.829 52.967 107.547 53.4256 107.344C53.8843 107.141 54.375 107.04 54.8976 107.04C55.6016 107.04 56.231 107.189 56.7856 107.488C57.3403 107.787 57.767 108.219 58.0656 108.784C58.3323 108.251 58.7483 107.829 59.3136 107.52C59.879 107.2 60.487 107.04 61.1376 107.04ZM75.1706 111.376C75.1706 111.707 75.1493 112.005 75.1066 112.272H68.3706C68.424 112.976 68.6853 113.541 69.1546 113.968C69.624 114.395 70.2 114.608 70.8826 114.608C71.864 114.608 72.5573 114.197 72.9626 113.376H74.9306C74.664 114.187 74.1786 114.853 73.4746 115.376C72.7813 115.888 71.9173 116.144 70.8826 116.144C70.04 116.144 69.2826 115.957 68.6106 115.584C67.9493 115.2 67.4266 114.667 67.0426 113.984C66.6693 113.291 66.4826 112.491 66.4826 111.584C66.4826 110.677 66.664 109.883 67.0266 109.2C67.4 108.507 67.9173 107.973 68.5786 107.6C69.2506 107.227 70.0186 107.04 70.8826 107.04C71.7146 107.04 72.456 107.221 73.1066 107.584C73.7573 107.947 74.264 108.459 74.6266 109.12C74.9893 109.771 75.1706 110.523 75.1706 111.376ZM73.2666 110.8C73.256 110.128 73.016 109.589 72.5466 109.184C72.0773 108.779 71.496 108.576 70.8026 108.576C70.1733 108.576 69.6346 108.779 69.1866 109.184C68.7386 109.579 68.472 110.117 68.3866 110.8H73.2666ZM84.7539 104.88C85.9379 104.88 86.9725 105.109 87.8579 105.568C88.7539 106.016 89.4419 106.667 89.9219 107.52C90.4125 108.363 90.6579 109.349 90.6579 110.48C90.6579 111.611 90.4125 112.592 89.9219 113.424C89.4419 114.256 88.7539 114.896 87.8579 115.344C86.9725 115.781 85.9379 116 84.7539 116H81.1219V104.88H84.7539ZM84.7539 114.512C86.0552 114.512 87.0525 114.16 87.7459 113.456C88.4392 112.752 88.7859 111.76 88.7859 110.48C88.7859 109.189 88.4392 108.181 87.7459 107.456C87.0525 106.731 86.0552 106.368 84.7539 106.368H82.9459V114.512H84.7539ZM100.546 111.376C100.546 111.707 100.524 112.005 100.482 112.272H93.7456C93.799 112.976 94.0603 113.541 94.5296 113.968C94.999 114.395 95.575 114.608 96.2576 114.608C97.239 114.608 97.9323 114.197 98.3376 113.376H100.306C100.039 114.187 99.5536 114.853 98.8496 115.376C98.1563 115.888 97.2923 116.144 96.2576 116.144C95.415 116.144 94.6576 115.957 93.9856 115.584C93.3243 115.2 92.8016 114.667 92.4176 113.984C92.0443 113.291 91.8576 112.491 91.8576 111.584C91.8576 110.677 92.039 109.883 92.4016 109.2C92.775 108.507 93.2923 107.973 93.9536 107.6C94.6256 107.227 95.3936 107.04 96.2576 107.04C97.0896 107.04 97.831 107.221 98.4816 107.584C99.1323 107.947 99.639 108.459 100.002 109.12C100.364 109.771 100.546 110.523 100.546 111.376ZM98.6416 110.8C98.631 110.128 98.391 109.589 97.9216 109.184C97.4523 108.779 96.871 108.576 96.1776 108.576C95.5483 108.576 95.0096 108.779 94.5616 109.184C94.1136 109.579 93.847 110.117 93.7616 110.8H98.6416ZM105.749 114.368L108.245 107.184H110.181L106.821 116H104.645L101.301 107.184H103.253L105.749 114.368ZM119.639 111.376C119.639 111.707 119.618 112.005 119.575 112.272H112.839C112.893 112.976 113.154 113.541 113.623 113.968C114.093 114.395 114.669 114.608 115.351 114.608C116.333 114.608 117.026 114.197 117.431 113.376H119.399C119.133 114.187 118.647 114.853 117.943 115.376C117.25 115.888 116.386 116.144 115.351 116.144C114.509 116.144 113.751 115.957 113.079 115.584C112.418 115.2 111.895 114.667 111.511 113.984C111.138 113.291 110.951 112.491 110.951 111.584C110.951 110.677 111.133 109.883 111.495 109.2C111.869 108.507 112.386 107.973 113.047 107.6C113.719 107.227 114.487 107.04 115.351 107.04C116.183 107.04 116.925 107.221 117.575 107.584C118.226 107.947 118.733 108.459 119.095 109.12C119.458 109.771 119.639 110.523 119.639 111.376ZM117.735 110.8C117.725 110.128 117.485 109.589 117.015 109.184C116.546 108.779 115.965 108.576 115.271 108.576C114.642 108.576 114.103 108.779 113.655 109.184C113.207 109.579 112.941 110.117 112.855 110.8H117.735ZM123.258 104.16V116H121.434V104.16H123.258ZM129.477 116.144C128.645 116.144 127.893 115.957 127.221 115.584C126.549 115.2 126.021 114.667 125.637 113.984C125.253 113.291 125.061 112.491 125.061 111.584C125.061 110.688 125.258 109.893 125.653 109.2C126.048 108.507 126.586 107.973 127.269 107.6C127.952 107.227 128.714 107.04 129.557 107.04C130.4 107.04 131.162 107.227 131.845 107.6C132.528 107.973 133.066 108.507 133.461 109.2C133.856 109.893 134.053 110.688 134.053 111.584C134.053 112.48 133.85 113.275 133.445 113.968C133.04 114.661 132.485 115.2 131.781 115.584C131.088 115.957 130.32 116.144 129.477 116.144ZM129.477 114.56C129.946 114.56 130.384 114.448 130.789 114.224C131.205 114 131.541 113.664 131.797 113.216C132.053 112.768 132.181 112.224 132.181 111.584C132.181 110.944 132.058 110.405 131.813 109.968C131.568 109.52 131.242 109.184 130.837 108.96C130.432 108.736 129.994 108.624 129.525 108.624C129.056 108.624 128.618 108.736 128.213 108.96C127.818 109.184 127.504 109.52 127.269 109.968C127.034 110.405 126.917 110.944 126.917 111.584C126.917 112.533 127.157 113.269 127.637 113.792C128.128 114.304 128.741 114.56 129.477 114.56ZM137.68 108.48C137.99 108.075 138.411 107.733 138.944 107.456C139.478 107.179 140.08 107.04 140.752 107.04C141.52 107.04 142.219 107.232 142.848 107.616C143.488 107.989 143.99 108.517 144.352 109.2C144.715 109.883 144.896 110.667 144.896 111.552C144.896 112.437 144.715 113.232 144.352 113.936C143.99 114.629 143.488 115.173 142.848 115.568C142.219 115.952 141.52 116.144 140.752 116.144C140.08 116.144 139.483 116.011 138.96 115.744C138.438 115.467 138.011 115.125 137.68 114.72V120.192H135.856V107.184H137.68V108.48ZM143.04 111.552C143.04 110.944 142.912 110.421 142.656 109.984C142.411 109.536 142.08 109.2 141.664 108.976C141.259 108.741 140.822 108.624 140.352 108.624C139.894 108.624 139.456 108.741 139.04 108.976C138.635 109.211 138.304 109.552 138.048 110C137.803 110.448 137.68 110.976 137.68 111.584C137.68 112.192 137.803 112.725 138.048 113.184C138.304 113.632 138.635 113.973 139.04 114.208C139.456 114.443 139.894 114.56 140.352 114.56C140.822 114.56 141.259 114.443 141.664 114.208C142.08 113.963 142.411 113.611 142.656 113.152C142.912 112.693 143.04 112.16 143.04 111.552ZM157.372 107.04C158.065 107.04 158.684 107.184 159.228 107.472C159.783 107.76 160.215 108.187 160.524 108.752C160.844 109.317 161.004 110 161.004 110.8V116H159.196V111.072C159.196 110.283 158.999 109.68 158.604 109.264C158.209 108.837 157.671 108.624 156.988 108.624C156.305 108.624 155.761 108.837 155.356 109.264C154.961 109.68 154.764 110.283 154.764 111.072V116H152.956V111.072C152.956 110.283 152.759 109.68 152.364 109.264C151.969 108.837 151.431 108.624 150.748 108.624C150.065 108.624 149.521 108.837 149.116 109.264C148.721 109.68 148.524 110.283 148.524 111.072V116H146.7V107.184H148.524V108.192C148.823 107.829 149.201 107.547 149.66 107.344C150.119 107.141 150.609 107.04 151.132 107.04C151.836 107.04 152.465 107.189 153.02 107.488C153.575 107.787 154.001 108.219 154.3 108.784C154.567 108.251 154.983 107.829 155.548 107.52C156.113 107.2 156.721 107.04 157.372 107.04ZM171.405 111.376C171.405 111.707 171.384 112.005 171.341 112.272H164.605C164.658 112.976 164.92 113.541 165.389 113.968C165.858 114.395 166.434 114.608 167.117 114.608C168.098 114.608 168.792 114.197 169.197 113.376H171.165C170.898 114.187 170.413 114.853 169.709 115.376C169.016 115.888 168.152 116.144 167.117 116.144C166.274 116.144 165.517 115.957 164.845 115.584C164.184 115.2 163.661 114.667 163.277 113.984C162.904 113.291 162.717 112.491 162.717 111.584C162.717 110.677 162.898 109.883 163.261 109.2C163.634 108.507 164.152 107.973 164.813 107.6C165.485 107.227 166.253 107.04 167.117 107.04C167.949 107.04 168.69 107.221 169.341 107.584C169.992 107.947 170.498 108.459 170.861 109.12C171.224 109.771 171.405 110.523 171.405 111.376ZM169.501 110.8C169.49 110.128 169.25 109.589 168.781 109.184C168.312 108.779 167.73 108.576 167.037 108.576C166.408 108.576 165.869 108.779 165.421 109.184C164.973 109.579 164.706 110.117 164.621 110.8H169.501ZM177.648 107.04C178.341 107.04 178.96 107.184 179.504 107.472C180.059 107.76 180.491 108.187 180.8 108.752C181.109 109.317 181.264 110 181.264 110.8V116H179.456V111.072C179.456 110.283 179.259 109.68 178.864 109.264C178.469 108.837 177.931 108.624 177.248 108.624C176.565 108.624 176.021 108.837 175.616 109.264C175.221 109.68 175.024 110.283 175.024 111.072V116H173.2V107.184H175.024V108.192C175.323 107.829 175.701 107.547 176.16 107.344C176.629 107.141 177.125 107.04 177.648 107.04ZM185.719 108.672V113.552C185.719 113.883 185.793 114.123 185.943 114.272C186.103 114.411 186.369 114.48 186.743 114.48H187.863V116H186.423C185.601 116 184.972 115.808 184.535 115.424C184.097 115.04 183.879 114.416 183.879 113.552V108.672H182.839V107.184H183.879V104.992H185.719V107.184H187.863V108.672H185.719Z" fill="white"/>
<g clip-path="url(#clip0_1_159)">
<path d="M87.2622 160.974C87.3481 160.988 87.4351 160.994 87.5221 160.993H102.337L102.014 161.144C101.698 161.293 101.411 161.496 101.165 161.745L97.0107 165.899C96.4635 166.421 96.3716 167.262 96.7928 167.89C97.2831 168.559 98.2232 168.705 98.8928 168.215C98.9469 168.175 98.9983 168.132 99.0466 168.085L106.559 160.573C107.146 159.986 107.147 159.035 106.56 158.448C106.56 158.447 106.56 158.447 106.559 158.446L99.0466 150.934C98.459 150.348 97.5077 150.349 96.9217 150.937C96.8756 150.983 96.8325 151.032 96.7928 151.084C96.3716 151.712 96.4635 152.553 97.0107 153.075L101.158 157.237C101.378 157.458 101.632 157.643 101.909 157.785L102.36 157.988H87.6048C86.8372 157.96 86.1638 158.496 86.0196 159.25C85.8868 160.069 86.4431 160.841 87.2622 160.974Z" fill="#DC7000"/>
</g>
<circle cx="96.5" cy="32.5" r="32.5" fill="white"/>
<g clip-path="url(#clip1_1_159)">
<path d="M83.1879 29.3051C83.3295 29.3059 83.4655 29.2503 83.566 29.1507L85.6959 27.0207C85.9047 26.8119 85.9047 26.4734 85.6959 26.2646C85.4871 26.0558 85.1486 26.0558 84.9398 26.2646L82.8099 28.3945C82.709 28.4945 82.6523 28.6306 82.6523 28.7726C82.6523 28.9146 82.709 29.0507 82.8099 29.1507C82.9103 29.2503 83.0464 29.3059 83.1879 29.3051Z" fill="#DC7000"/>
<path d="M83.1879 32.5C83.3295 32.5008 83.4655 32.4452 83.566 32.3456L88.8908 27.0207C89.0996 26.8119 89.0996 26.4734 88.8908 26.2646C88.682 26.0558 88.3435 26.0558 88.1347 26.2646L82.8099 31.5894C82.709 31.6894 82.6523 31.8255 82.6523 31.9675C82.6523 32.1095 82.709 32.2456 82.8099 32.3456C82.9103 32.4452 83.0464 32.5008 83.1879 32.5Z" fill="#DC7000"/>
<path d="M110.877 16.5254H97.0325C96.1502 16.5254 95.435 17.2406 95.435 18.1229V23.9802H83.1878C81.7174 23.9802 80.5254 25.1722 80.5254 26.6427V40.4873C80.5254 41.9577 81.7174 43.1497 83.1878 43.1497H89.0452V45.2797H87.4477C86.5655 45.2797 85.8502 45.9949 85.8502 46.8771C85.8502 47.7594 86.5655 48.4746 87.4477 48.4746H110.877C111.759 48.4746 112.475 47.7594 112.475 46.8771V18.1229C112.475 17.2406 111.759 16.5254 110.877 16.5254ZM83.1878 25.0452H102.357C103.24 25.0452 103.955 25.7604 103.955 26.6427V39.4223H81.5904V26.6427C81.5904 25.7604 82.3056 25.0452 83.1878 25.0452ZM81.5904 40.4873H103.955C103.955 41.3695 103.24 42.0847 102.357 42.0847H83.1878C82.3056 42.0847 81.5904 41.3695 81.5904 40.4873ZM90.1101 43.1497H95.435V45.2797H90.1101V43.1497ZM97.0325 47.4096H87.4477C87.1536 47.4096 86.9152 47.1712 86.9152 46.8771C86.9152 46.583 87.1536 46.3446 87.4477 46.3446H98.0974C98.3915 46.3446 98.6299 46.583 98.6299 46.8771C98.6299 47.1712 98.3915 47.4096 98.0974 47.4096H97.0325ZM111.41 46.8771C111.41 47.1712 111.171 47.4096 110.877 47.4096H99.599C99.7716 46.9214 99.6969 46.3799 99.3986 45.9566C99.1002 45.5334 98.6152 45.2811 98.0974 45.2797H96.5V43.1497H102.357C103.828 43.1497 105.02 41.9577 105.02 40.4873V26.6427C105.02 25.1722 103.828 23.9802 102.357 23.9802H96.5V18.1229C96.5 17.8288 96.7384 17.5904 97.0325 17.5904H110.877C111.171 17.5904 111.41 17.8288 111.41 18.1229V46.8771Z" fill="#DC7000"/>
<path d="M109.28 19.1879H98.6299C98.0417 19.1879 97.5649 19.6647 97.5649 20.2529V21.3178C97.5649 21.906 98.0417 22.3828 98.6299 22.3828H109.28C109.868 22.3828 110.345 21.906 110.345 21.3178V20.2529C110.345 19.6647 109.868 19.1879 109.28 19.1879ZM98.6299 21.3178V20.2529H109.28V21.3178H98.6299Z" fill="#DC7000"/>
<path d="M108.215 27.1751C109.097 27.1751 109.812 26.4599 109.812 25.5777C109.812 24.6954 109.097 23.9802 108.215 23.9802C107.332 23.9802 106.617 24.6954 106.617 25.5777C106.617 26.4599 107.332 27.1751 108.215 27.1751ZM108.215 25.0452C108.509 25.0452 108.747 25.2836 108.747 25.5777C108.747 25.8717 108.509 26.1102 108.215 26.1102C107.921 26.1102 107.682 25.8717 107.682 25.5777C107.682 25.2836 107.921 25.0452 108.215 25.0452Z" fill="#DC7000"/>
<path d="M109.812 29.8376C109.812 28.9553 109.097 28.2401 108.215 28.2401C107.332 28.2401 106.617 28.9553 106.617 29.8376C106.617 30.7198 107.332 31.435 108.215 31.435C109.097 31.435 109.812 30.7198 109.812 29.8376ZM108.215 30.3701C107.921 30.3701 107.682 30.1317 107.682 29.8376C107.682 29.5435 107.921 29.3051 108.215 29.3051C108.509 29.3051 108.747 29.5435 108.747 29.8376C108.747 30.1317 108.509 30.3701 108.215 30.3701Z" fill="#DC7000"/>
<path d="M101.292 44.2147C100.998 44.2147 100.76 44.4531 100.76 44.7472V45.8121C100.76 46.1062 100.998 46.3446 101.292 46.3446C101.587 46.3446 101.825 46.1062 101.825 45.8121V44.7472C101.825 44.4531 101.587 44.2147 101.292 44.2147Z" fill="#DC7000"/>
<path d="M103.422 44.2147C103.128 44.2147 102.89 44.4531 102.89 44.7472V45.8121C102.89 46.1062 103.128 46.3446 103.422 46.3446C103.716 46.3446 103.955 46.1062 103.955 45.8121V44.7472C103.955 44.4531 103.716 44.2147 103.422 44.2147Z" fill="#DC7000"/>
<path d="M105.552 44.2147C105.258 44.2147 105.02 44.4531 105.02 44.7472V45.8121C105.02 46.1062 105.258 46.3446 105.552 46.3446C105.846 46.3446 106.085 46.1062 106.085 45.8121V44.7472C106.085 44.4531 105.846 44.2147 105.552 44.2147Z" fill="#DC7000"/>
<path d="M107.682 44.2147C107.388 44.2147 107.15 44.4531 107.15 44.7472V45.8121C107.15 46.1062 107.388 46.3446 107.682 46.3446C107.976 46.3446 108.215 46.1062 108.215 45.8121V44.7472C108.215 44.4531 107.976 44.2147 107.682 44.2147Z" fill="#DC7000"/>
<path d="M109.812 44.2147C109.518 44.2147 109.28 44.4531 109.28 44.7472V45.8121C109.28 46.1062 109.518 46.3446 109.812 46.3446C110.106 46.3446 110.345 46.1062 110.345 45.8121V44.7472C110.345 44.4531 110.106 44.2147 109.812 44.2147Z" fill="#DC7000"/>
</g>
<defs>
<clipPath id="clip0_1_159">
<rect width="21" height="21" fill="white" transform="matrix(-1 0 0 -1 107 170)"/>
</clipPath>
<clipPath id="clip1_1_159">
<rect width="31.9492" height="31.9492" fill="white" transform="translate(80.5254 16.5254)"/>
</clipPath>
</defs>
</svg>
