<svg width="131" height="169" viewBox="0 0 131 169" fill="none" xmlns="http://www.w3.org/2000/svg">
<path d="M7.904 113.728H3.248L2.448 116H0.544L4.528 104.864H6.64L10.624 116H8.704L7.904 113.728ZM7.392 112.24L5.584 107.072L3.76 112.24H7.392ZM18.1323 116L15.5723 111.552H14.1803V116H12.3563V104.88H16.1963C17.0496 104.88 17.7696 105.029 18.3563 105.328C18.9536 105.627 19.3963 106.027 19.6843 106.528C19.9829 107.029 20.1323 107.589 20.1323 108.208C20.1323 108.933 19.9189 109.595 19.4923 110.192C19.0763 110.779 18.4309 111.179 17.5563 111.392L20.3083 116H18.1323ZM14.1803 110.096H16.1963C16.8789 110.096 17.3909 109.925 17.7323 109.584C18.0843 109.243 18.2603 108.784 18.2603 108.208C18.2603 107.632 18.0896 107.184 17.7483 106.864C17.4069 106.533 16.8896 106.368 16.1963 106.368H14.1803V110.096ZM28.3856 100.896L24.0336 118.8H22.2416L26.5776 100.896H28.3856ZM40.2684 104.88L36.0924 116H33.9804L29.7884 104.88H31.7404L35.0364 114.128L38.3484 104.88H40.2684ZM47.5698 116L45.0098 111.552H43.6178V116H41.7938V104.88H45.6338C46.4871 104.88 47.2071 105.029 47.7938 105.328C48.3911 105.627 48.8338 106.027 49.1218 106.528C49.4204 107.029 49.5698 107.589 49.5698 108.208C49.5698 108.933 49.3564 109.595 48.9298 110.192C48.5138 110.779 47.8684 111.179 46.9938 111.392L49.7458 116H47.5698ZM43.6178 110.096H45.6338C46.3164 110.096 46.8284 109.925 47.1698 109.584C47.5218 109.243 47.6978 108.784 47.6978 108.208C47.6978 107.632 47.5271 107.184 47.1858 106.864C46.8444 106.533 46.3271 106.368 45.6338 106.368H43.6178V110.096ZM59.7234 116.112C58.9767 116.112 58.3047 115.984 57.7074 115.728C57.11 115.461 56.6407 115.088 56.2994 114.608C55.958 114.128 55.7874 113.568 55.7874 112.928H57.7394C57.782 113.408 57.9687 113.803 58.2994 114.112C58.6407 114.421 59.1154 114.576 59.7234 114.576C60.3527 114.576 60.8434 114.427 61.1954 114.128C61.5474 113.819 61.7234 113.424 61.7234 112.944C61.7234 112.571 61.6114 112.267 61.3874 112.032C61.174 111.797 60.902 111.616 60.5714 111.488C60.2514 111.36 59.8034 111.221 59.2274 111.072C58.502 110.88 57.91 110.688 57.4514 110.496C57.0034 110.293 56.6194 109.984 56.2994 109.568C55.9794 109.152 55.8194 108.597 55.8194 107.904C55.8194 107.264 55.9794 106.704 56.2994 106.224C56.6194 105.744 57.0674 105.376 57.6434 105.12C58.2194 104.864 58.886 104.736 59.6434 104.736C60.7207 104.736 61.6007 105.008 62.2834 105.552C62.9767 106.085 63.3607 106.821 63.4354 107.76H61.4194C61.3874 107.355 61.1954 107.008 60.8434 106.72C60.4914 106.432 60.0274 106.288 59.4514 106.288C58.9287 106.288 58.502 106.421 58.1714 106.688C57.8407 106.955 57.6754 107.339 57.6754 107.84C57.6754 108.181 57.7767 108.464 57.9794 108.688C58.1927 108.901 58.4594 109.072 58.7794 109.2C59.0994 109.328 59.5367 109.467 60.0914 109.616C60.8274 109.819 61.4247 110.021 61.8834 110.224C62.3527 110.427 62.7474 110.741 63.0674 111.168C63.398 111.584 63.5634 112.144 63.5634 112.848C63.5634 113.413 63.4087 113.947 63.0994 114.448C62.8007 114.949 62.358 115.355 61.7714 115.664C61.1954 115.963 60.5127 116.112 59.7234 116.112ZM69.5396 116.144C68.7076 116.144 67.9556 115.957 67.2836 115.584C66.6116 115.2 66.0836 114.667 65.6996 113.984C65.3156 113.291 65.1236 112.491 65.1236 111.584C65.1236 110.688 65.321 109.893 65.7156 109.2C66.1103 108.507 66.649 107.973 67.3316 107.6C68.0143 107.227 68.777 107.04 69.6196 107.04C70.4623 107.04 71.225 107.227 71.9076 107.6C72.5903 107.973 73.129 108.507 73.5236 109.2C73.9183 109.893 74.1156 110.688 74.1156 111.584C74.1156 112.48 73.913 113.275 73.5076 113.968C73.1023 114.661 72.5476 115.2 71.8436 115.584C71.1503 115.957 70.3823 116.144 69.5396 116.144ZM69.5396 114.56C70.009 114.56 70.4463 114.448 70.8516 114.224C71.2676 114 71.6036 113.664 71.8596 113.216C72.1156 112.768 72.2436 112.224 72.2436 111.584C72.2436 110.944 72.121 110.405 71.8756 109.968C71.6303 109.52 71.305 109.184 70.8996 108.96C70.4943 108.736 70.057 108.624 69.5876 108.624C69.1183 108.624 68.681 108.736 68.2756 108.96C67.881 109.184 67.5663 109.52 67.3316 109.968C67.097 110.405 66.9796 110.944 66.9796 111.584C66.9796 112.533 67.2196 113.269 67.6996 113.792C68.1903 114.304 68.8036 114.56 69.5396 114.56ZM77.7428 104.16V116H75.9188V104.16H77.7428ZM88.1215 107.184V116H86.2975V114.96C86.0095 115.323 85.6308 115.611 85.1615 115.824C84.7028 116.027 84.2122 116.128 83.6895 116.128C82.9962 116.128 82.3722 115.984 81.8175 115.696C81.2735 115.408 80.8415 114.981 80.5215 114.416C80.2122 113.851 80.0575 113.168 80.0575 112.368V107.184H81.8655V112.096C81.8655 112.885 82.0628 113.493 82.4575 113.92C82.8522 114.336 83.3908 114.544 84.0735 114.544C84.7562 114.544 85.2948 114.336 85.6895 113.92C86.0948 113.493 86.2975 112.885 86.2975 112.096V107.184H88.1215ZM92.6561 108.672V113.552C92.6561 113.883 92.7308 114.123 92.8801 114.272C93.0401 114.411 93.3068 114.48 93.6801 114.48H94.8001V116H93.3601C92.5388 116 91.9095 115.808 91.4721 115.424C91.0348 115.04 90.8161 114.416 90.8161 113.552V108.672H89.7761V107.184H90.8161V104.992H92.6561V107.184H94.8001V108.672H92.6561ZM97.4093 106.016C97.0786 106.016 96.8013 105.904 96.5773 105.68C96.3533 105.456 96.2413 105.179 96.2413 104.848C96.2413 104.517 96.3533 104.24 96.5773 104.016C96.8013 103.792 97.0786 103.68 97.4093 103.68C97.7293 103.68 98.0013 103.792 98.2253 104.016C98.4493 104.24 98.5613 104.517 98.5613 104.848C98.5613 105.179 98.4493 105.456 98.2253 105.68C98.0013 105.904 97.7293 106.016 97.4093 106.016ZM98.3053 107.184V116H96.4813V107.184H98.3053ZM104.524 116.144C103.692 116.144 102.94 115.957 102.268 115.584C101.596 115.2 101.068 114.667 100.684 113.984C100.3 113.291 100.108 112.491 100.108 111.584C100.108 110.688 100.305 109.893 100.7 109.2C101.095 108.507 101.633 107.973 102.316 107.6C102.999 107.227 103.761 107.04 104.604 107.04C105.447 107.04 106.209 107.227 106.892 107.6C107.575 107.973 108.113 108.507 108.508 109.2C108.903 109.893 109.1 110.688 109.1 111.584C109.1 112.48 108.897 113.275 108.492 113.968C108.087 114.661 107.532 115.2 106.828 115.584C106.135 115.957 105.367 116.144 104.524 116.144ZM104.524 114.56C104.993 114.56 105.431 114.448 105.836 114.224C106.252 114 106.588 113.664 106.844 113.216C107.1 112.768 107.228 112.224 107.228 111.584C107.228 110.944 107.105 110.405 106.86 109.968C106.615 109.52 106.289 109.184 105.884 108.96C105.479 108.736 105.041 108.624 104.572 108.624C104.103 108.624 103.665 108.736 103.26 108.96C102.865 109.184 102.551 109.52 102.316 109.968C102.081 110.405 101.964 110.944 101.964 111.584C101.964 112.533 102.204 113.269 102.684 113.792C103.175 114.304 103.788 114.56 104.524 114.56ZM115.351 107.04C116.044 107.04 116.663 107.184 117.207 107.472C117.762 107.76 118.194 108.187 118.503 108.752C118.812 109.317 118.967 110 118.967 110.8V116H117.159V111.072C117.159 110.283 116.962 109.68 116.567 109.264C116.172 108.837 115.634 108.624 114.951 108.624C114.268 108.624 113.724 108.837 113.319 109.264C112.924 109.68 112.727 110.283 112.727 111.072V116H110.903V107.184H112.727V108.192C113.026 107.829 113.404 107.547 113.863 107.344C114.332 107.141 114.828 107.04 115.351 107.04ZM124.494 116.144C123.8 116.144 123.176 116.021 122.622 115.776C122.078 115.52 121.646 115.179 121.326 114.752C121.006 114.315 120.835 113.829 120.814 113.296H122.702C122.734 113.669 122.91 113.984 123.23 114.24C123.56 114.485 123.971 114.608 124.462 114.608C124.974 114.608 125.368 114.512 125.646 114.32C125.934 114.117 126.078 113.861 126.078 113.552C126.078 113.221 125.918 112.976 125.598 112.816C125.288 112.656 124.792 112.48 124.11 112.288C123.448 112.107 122.91 111.931 122.494 111.76C122.078 111.589 121.715 111.328 121.406 110.976C121.107 110.624 120.958 110.16 120.958 109.584C120.958 109.115 121.096 108.688 121.374 108.304C121.651 107.909 122.046 107.6 122.558 107.376C123.08 107.152 123.678 107.04 124.35 107.04C125.352 107.04 126.158 107.296 126.766 107.808C127.384 108.309 127.715 108.997 127.758 109.872H125.934C125.902 109.477 125.742 109.163 125.454 108.928C125.166 108.693 124.776 108.576 124.286 108.576C123.806 108.576 123.438 108.667 123.182 108.848C122.926 109.029 122.798 109.269 122.798 109.568C122.798 109.803 122.883 110 123.054 110.16C123.224 110.32 123.432 110.448 123.678 110.544C123.923 110.629 124.286 110.741 124.766 110.88C125.406 111.051 125.928 111.227 126.334 111.408C126.75 111.579 127.107 111.835 127.406 112.176C127.704 112.517 127.859 112.971 127.87 113.536C127.87 114.037 127.731 114.485 127.454 114.88C127.176 115.275 126.782 115.584 126.27 115.808C125.768 116.032 125.176 116.144 124.494 116.144Z" fill="white"/>
<g clip-path="url(#clip0_1_201)">
<path d="M56.2622 159.974C56.3481 159.988 56.4351 159.994 56.5221 159.993H71.3372L71.0141 160.144C70.6984 160.293 70.4111 160.496 70.1652 160.745L66.0107 164.899C65.4635 165.421 65.3716 166.262 65.7928 166.89C66.2831 167.559 67.2232 167.705 67.8928 167.215C67.9469 167.175 67.9983 167.132 68.0466 167.085L75.5593 159.573C76.1464 158.986 76.147 158.035 75.5605 157.448C75.5601 157.447 75.5597 157.447 75.5593 157.446L68.0466 149.934C67.459 149.348 66.5077 149.349 65.9217 149.937C65.8756 149.983 65.8325 150.032 65.7928 150.084C65.3716 150.712 65.4635 151.553 66.0107 152.075L70.1577 156.237C70.3781 156.458 70.6316 156.643 70.909 156.785L71.3597 156.988H56.6048C55.8372 156.96 55.1638 157.496 55.0196 158.25C54.8868 159.069 55.4431 159.841 56.2622 159.974Z" fill="#DC7000"/>
</g>
<circle cx="66.5" cy="32.5" r="32.5" fill="white"/>
<g clip-path="url(#clip1_1_201)">
<path d="M68.5671 40.9055C66.8811 41.4681 65.0213 41.468 63.3305 40.9053C62.8567 40.7475 62.3452 41.0038 62.1876 41.4773C62.03 41.9509 62.2861 42.4626 62.7597 42.6203C63.7894 42.963 64.8703 43.1342 65.9509 43.1342C67.0316 43.1342 68.1119 42.9628 69.1392 42.62C69.6126 42.462 69.8684 41.9502 69.7103 41.4767C69.5524 41.0033 69.0406 40.7477 68.5671 40.9055Z" fill="#DC7000"/>
<path d="M76.4768 23.5315C76.0921 20.7727 73.7232 18.5951 70.7892 18.5951H69.7568V18.5309C69.7568 18.0318 69.3522 17.6271 68.8531 17.6271H63.0451C62.546 17.6271 62.1414 18.0318 62.1414 18.5309V18.5951H61.1091C58.1997 18.5951 55.8275 20.7422 55.424 23.5308C53.73 23.9163 52.4614 25.4337 52.4614 27.2428V34.9868C52.4614 37.4634 54.4787 38.4728 55.3951 38.6906C55.8089 44.2659 60.4904 48.4746 65.9491 48.4746C71.5159 48.4746 76.0925 44.1544 76.5027 38.6908C78.878 38.1269 79.4368 35.9719 79.4368 34.9869V27.2429C79.4369 25.4347 78.1695 23.9179 76.4768 23.5315ZM69.7568 20.4025H70.7891C73.3462 20.4025 74.4025 22.4932 74.6221 23.4351H69.7568V20.4025ZM63.9489 19.4346H67.9494V23.4351H63.9489V19.4346ZM61.1091 20.4025H62.1414V23.4351H57.2798C57.866 20.9796 60.0905 20.4025 61.1091 20.4025ZM65.9491 46.6671C61.4886 46.6671 57.6757 43.288 57.2188 38.7946H61.6754C62.7844 38.7946 63.8695 38.3452 64.6524 37.5616C64.6571 37.557 64.6617 37.5523 64.6662 37.5475C65.0062 37.215 65.4727 37.0246 65.9491 37.0246C66.4257 37.0246 66.8921 37.215 67.2321 37.5476C67.2366 37.5523 67.2412 37.557 67.2459 37.5616C68.0288 38.3452 69.1139 38.7946 70.2229 38.7946H74.6791C74.2253 43.2109 70.4833 46.6671 65.9491 46.6671ZM77.6294 34.9869C77.6294 36.1054 76.7178 36.9871 75.6291 36.9871H70.2229C69.5968 36.9871 68.9843 36.7364 68.5391 36.2986C68.5342 36.2934 68.5293 36.2884 68.5243 36.2833C67.8467 35.6058 66.9082 35.2172 65.9492 35.2172C64.9903 35.2172 64.0517 35.6058 63.3741 36.2833C63.3691 36.2883 63.3641 36.2934 63.3593 36.2985C62.914 36.7364 62.3015 36.9871 61.6754 36.9871H56.2691C55.1839 36.9871 54.2688 36.1091 54.2688 34.9869V27.2429C54.2688 26.1399 55.1662 25.2426 56.2691 25.2426H75.6291C76.732 25.2426 77.6293 26.14 77.6293 27.2429V34.9869H77.6294Z" fill="#DC7000"/>
</g>
<defs>
<clipPath id="clip0_1_201">
<rect width="21" height="21" fill="white" transform="matrix(-1 0 0 -1 76 169)"/>
</clipPath>
<clipPath id="clip1_1_201">
<rect width="30.8475" height="30.8475" fill="white" transform="translate(50.5254 17.6271)"/>
</clipPath>
</defs>
</svg>
