<svg width="135" height="17" viewBox="0 0 135 17" fill="none" xmlns="http://www.w3.org/2000/svg">
<path d="M8.69 16C8.54333 16 8.41867 15.9487 8.316 15.846C8.21333 15.7433 8.162 15.6187 8.162 15.472V12.656H1.188C1.04133 12.656 0.916667 12.6047 0.814 12.502C0.711333 12.3993 0.66 12.2747 0.66 12.128V10.632C0.66 10.3973 0.740667 10.1773 0.902 9.972L7.392 0.973999C7.46533 0.856666 7.57533 0.768666 7.722 0.709999C7.86867 0.636666 8.03 0.599999 8.206 0.599999H10.604C10.7653 0.599999 10.89 0.651332 10.978 0.754C11.0807 0.841999 11.132 0.966666 11.132 1.128V10.06H13.09C13.2513 10.06 13.3833 10.1113 13.486 10.214C13.5887 10.302 13.64 10.4267 13.64 10.588V12.128C13.64 12.2747 13.5887 12.3993 13.486 12.502C13.3833 12.6047 13.2587 12.656 13.112 12.656H11.132V15.472C11.132 15.6187 11.0807 15.7433 10.978 15.846C10.89 15.9487 10.7653 16 10.604 16H8.69ZM8.228 10.148V3.79L3.718 10.148H8.228ZM21.5676 16.22C19.6169 16.22 18.1576 15.6773 17.1896 14.592C16.2362 13.5067 15.7156 12.084 15.6276 10.324C15.6129 9.928 15.6056 9.25333 15.6056 8.3C15.6056 7.332 15.6129 6.64267 15.6276 6.232C15.7009 4.50133 16.2289 3.09333 17.2116 2.008C18.1942 0.922666 19.6462 0.379999 21.5676 0.379999C23.5036 0.379999 24.9629 0.922666 25.9456 2.008C26.9282 3.09333 27.4489 4.50133 27.5076 6.232C27.5369 6.64267 27.5516 7.332 27.5516 8.3C27.5516 9.25333 27.5369 9.928 27.5076 10.324C27.4342 12.084 26.9136 13.5067 25.9456 14.592C24.9922 15.6773 23.5329 16.22 21.5676 16.22ZM21.5676 13.69C22.4916 13.69 23.1809 13.3893 23.6356 12.788C24.0902 12.172 24.3322 11.314 24.3616 10.214C24.3909 9.36333 24.4056 8.718 24.4056 8.278C24.4056 7.794 24.3909 7.156 24.3616 6.364C24.3322 5.27867 24.0902 4.428 23.6356 3.812C23.1809 3.196 22.4916 2.888 21.5676 2.888C20.6582 2.888 19.9689 3.196 19.4996 3.812C19.0449 4.428 18.8029 5.27867 18.7736 6.364C18.7589 6.76 18.7516 7.398 18.7516 8.278C18.7516 9.14333 18.7589 9.78867 18.7736 10.214C18.8029 11.314 19.0449 12.172 19.4996 12.788C19.9689 13.3893 20.6582 13.69 21.5676 13.69ZM36.0819 16C35.9352 16 35.8106 15.9487 35.7079 15.846C35.6052 15.7433 35.5539 15.6187 35.5539 15.472V1.15C35.5539 0.988666 35.5979 0.856666 35.6859 0.754C35.7886 0.651332 35.9206 0.599999 36.0819 0.599999H45.6299C45.7912 0.599999 45.9232 0.651332 46.0259 0.754C46.1286 0.856666 46.1799 0.988666 46.1799 1.15V2.69C46.1799 2.85133 46.1286 2.98333 46.0259 3.086C45.9232 3.174 45.7912 3.218 45.6299 3.218H38.5679V7.398H45.1899C45.3512 7.398 45.4832 7.44933 45.5859 7.552C45.6886 7.65467 45.7399 7.78667 45.7399 7.948V9.488C45.7399 9.64933 45.6886 9.78133 45.5859 9.884C45.4832 9.972 45.3512 10.016 45.1899 10.016H38.5679V15.472C38.5679 15.6333 38.5166 15.7653 38.4139 15.868C38.3112 15.956 38.1792 16 38.0179 16H36.0819ZM53.3479 16.22C51.6319 16.22 50.3046 15.78 49.3659 14.9C48.4273 14.0053 47.9213 12.788 47.8479 11.248L47.8259 10.28L47.8479 9.312C47.9213 7.78667 48.4346 6.57667 49.3879 5.682C50.3413 4.78733 51.6613 4.34 53.3479 4.34C55.0346 4.34 56.3546 4.78733 57.3079 5.682C58.2613 6.57667 58.7746 7.78667 58.8479 9.312C58.8626 9.488 58.8699 9.81067 58.8699 10.28C58.8699 10.7493 58.8626 11.072 58.8479 11.248C58.7746 12.788 58.2686 14.0053 57.3299 14.9C56.3913 15.78 55.0639 16.22 53.3479 16.22ZM53.3479 14.042C54.1253 14.042 54.7266 13.8 55.1519 13.316C55.5773 12.8173 55.8119 12.0913 55.8559 11.138C55.8706 10.9913 55.8779 10.7053 55.8779 10.28C55.8779 9.85467 55.8706 9.56867 55.8559 9.422C55.8119 8.46867 55.5773 7.75 55.1519 7.266C54.7266 6.76733 54.1253 6.518 53.3479 6.518C52.5706 6.518 51.9693 6.76733 51.5439 7.266C51.1186 7.75 50.8839 8.46867 50.8399 9.422L50.8179 10.28L50.8399 11.138C50.8839 12.0913 51.1186 12.8173 51.5439 13.316C51.9693 13.8 52.5706 14.042 53.3479 14.042ZM61.8575 16C61.7108 16 61.5861 15.9487 61.4835 15.846C61.3808 15.7433 61.3295 15.6187 61.3295 15.472V0.907999C61.3295 0.746666 61.3808 0.622 61.4835 0.534C61.5861 0.431333 61.7108 0.379999 61.8575 0.379999H63.6835C63.8448 0.379999 63.9695 0.431333 64.0575 0.534C64.1601 0.622 64.2115 0.746666 64.2115 0.907999V15.472C64.2115 15.6187 64.1601 15.7433 64.0575 15.846C63.9695 15.9487 63.8448 16 63.6835 16H61.8575ZM67.6797 16C67.5331 16 67.4084 15.9487 67.3057 15.846C67.2031 15.7433 67.1517 15.6187 67.1517 15.472V0.907999C67.1517 0.746666 67.2031 0.622 67.3057 0.534C67.4084 0.431333 67.5331 0.379999 67.6797 0.379999H69.5057C69.6671 0.379999 69.7917 0.431333 69.8797 0.534C69.9824 0.622 70.0337 0.746666 70.0337 0.907999V15.472C70.0337 15.6187 69.9824 15.7433 69.8797 15.846C69.7917 15.9487 69.6671 16 69.5057 16H67.6797ZM78.012 16.22C76.296 16.22 74.9687 15.78 74.03 14.9C73.0913 14.0053 72.5853 12.788 72.512 11.248L72.49 10.28L72.512 9.312C72.5853 7.78667 73.0987 6.57667 74.052 5.682C75.0053 4.78733 76.3253 4.34 78.012 4.34C79.6987 4.34 81.0187 4.78733 81.972 5.682C82.9253 6.57667 83.4387 7.78667 83.512 9.312C83.5267 9.488 83.534 9.81067 83.534 10.28C83.534 10.7493 83.5267 11.072 83.512 11.248C83.4387 12.788 82.9327 14.0053 81.994 14.9C81.0553 15.78 79.728 16.22 78.012 16.22ZM78.012 14.042C78.7893 14.042 79.3907 13.8 79.816 13.316C80.2413 12.8173 80.476 12.0913 80.52 11.138C80.5347 10.9913 80.542 10.7053 80.542 10.28C80.542 9.85467 80.5347 9.56867 80.52 9.422C80.476 8.46867 80.2413 7.75 79.816 7.266C79.3907 6.76733 78.7893 6.518 78.012 6.518C77.2347 6.518 76.6333 6.76733 76.208 7.266C75.7827 7.75 75.548 8.46867 75.504 9.422L75.482 10.28L75.504 11.138C75.548 12.0913 75.7827 12.8173 76.208 13.316C76.6333 13.8 77.2347 14.042 78.012 14.042ZM88.7733 16C88.5826 16 88.4286 15.956 88.3113 15.868C88.2086 15.7653 88.1206 15.626 88.0473 15.45L84.9013 5.242C84.8866 5.198 84.8793 5.132 84.8793 5.044C84.8793 4.912 84.9233 4.802 85.0113 4.714C85.1139 4.61133 85.2239 4.56 85.3413 4.56H86.9693C87.1306 4.56 87.2626 4.604 87.3653 4.692C87.4679 4.78 87.5339 4.87533 87.5633 4.978L89.7193 12.26L92.0073 5.044C92.0513 4.912 92.1246 4.802 92.2273 4.714C92.3446 4.61133 92.4913 4.56 92.6673 4.56H93.7673C93.9433 4.56 94.0826 4.61133 94.1853 4.714C94.3026 4.802 94.3833 4.912 94.4273 5.044L96.7153 12.26L98.8713 4.978C98.8859 4.87533 98.9446 4.78 99.0473 4.692C99.1646 4.604 99.2966 4.56 99.4433 4.56H101.071C101.203 4.56 101.313 4.61133 101.401 4.714C101.504 4.802 101.555 4.912 101.555 5.044L101.511 5.242L98.3653 15.45C98.3066 15.626 98.2186 15.7653 98.1013 15.868C97.9986 15.956 97.8519 16 97.6613 16H96.2313C95.8499 16 95.6079 15.8167 95.5053 15.45L93.2173 8.498L90.9293 15.45C90.8119 15.8167 90.5626 16 90.1813 16H88.7733ZM108.302 16.22C106.674 16.22 105.376 15.7507 104.408 14.812C103.455 13.8587 102.949 12.524 102.89 10.808L102.868 10.258L102.89 9.708C102.963 8.036 103.477 6.72333 104.43 5.77C105.398 4.81667 106.689 4.34 108.302 4.34C110.033 4.34 111.367 4.868 112.306 5.924C113.259 6.98 113.736 8.388 113.736 10.148V10.61C113.736 10.7567 113.685 10.8813 113.582 10.984C113.479 11.0867 113.347 11.138 113.186 11.138H105.882V11.314C105.911 12.1207 106.131 12.8027 106.542 13.36C106.967 13.9027 107.547 14.174 108.28 14.174C109.145 14.174 109.842 13.8367 110.37 13.162C110.502 13.0007 110.605 12.898 110.678 12.854C110.766 12.81 110.891 12.788 111.052 12.788H112.944C113.076 12.788 113.186 12.832 113.274 12.92C113.377 12.9933 113.428 13.0887 113.428 13.206C113.428 13.558 113.215 13.976 112.79 14.46C112.379 14.9293 111.785 15.34 111.008 15.692C110.231 16.044 109.329 16.22 108.302 16.22ZM110.744 9.29V9.224C110.744 8.35867 110.524 7.662 110.084 7.134C109.659 6.606 109.065 6.342 108.302 6.342C107.539 6.342 106.945 6.606 106.52 7.134C106.095 7.662 105.882 8.35867 105.882 9.224V9.29H110.744ZM116.599 16C116.452 16 116.328 15.9487 116.225 15.846C116.122 15.7433 116.071 15.6187 116.071 15.472V5.11C116.071 4.96333 116.122 4.83867 116.225 4.736C116.328 4.61867 116.452 4.56 116.599 4.56H118.381C118.542 4.56 118.674 4.61133 118.777 4.714C118.88 4.81667 118.931 4.94867 118.931 5.11V6.012C119.283 5.54267 119.723 5.18333 120.251 4.934C120.794 4.68467 121.41 4.56 122.099 4.56H123.001C123.162 4.56 123.287 4.61133 123.375 4.714C123.478 4.802 123.529 4.92667 123.529 5.088V6.672C123.529 6.81867 123.478 6.94333 123.375 7.046C123.287 7.14867 123.162 7.2 123.001 7.2H121.285C120.596 7.2 120.053 7.398 119.657 7.794C119.261 8.19 119.063 8.73267 119.063 9.422V15.472C119.063 15.6187 119.012 15.7433 118.909 15.846C118.806 15.9487 118.674 16 118.513 16H116.599ZM129.579 16.22C128.479 16.22 127.555 16.0587 126.807 15.736C126.059 15.3987 125.502 15.01 125.135 14.57C124.783 14.1153 124.607 13.7267 124.607 13.404C124.607 13.2573 124.658 13.14 124.761 13.052C124.864 12.964 124.981 12.92 125.113 12.92H126.851C126.983 12.92 127.093 12.9713 127.181 13.074C127.24 13.118 127.394 13.25 127.643 13.47C127.892 13.7047 128.186 13.888 128.523 14.02C128.86 14.152 129.234 14.218 129.645 14.218C130.232 14.218 130.716 14.1007 131.097 13.866C131.478 13.6313 131.669 13.3087 131.669 12.898C131.669 12.59 131.581 12.3407 131.405 12.15C131.244 11.9593 130.943 11.7907 130.503 11.644C130.063 11.4827 129.41 11.314 128.545 11.138C127.298 10.874 126.374 10.4707 125.773 9.928C125.186 9.38533 124.893 8.66667 124.893 7.772C124.893 7.18533 125.069 6.63533 125.421 6.122C125.773 5.594 126.294 5.16867 126.983 4.846C127.687 4.50867 128.523 4.34 129.491 4.34C130.474 4.34 131.324 4.50133 132.043 4.824C132.762 5.132 133.304 5.506 133.671 5.946C134.052 6.37133 134.243 6.75267 134.243 7.09C134.243 7.222 134.192 7.33933 134.089 7.442C134.001 7.53 133.891 7.574 133.759 7.574H132.131C132.014 7.574 131.889 7.52267 131.757 7.42C131.654 7.34667 131.493 7.20733 131.273 7.002C131.053 6.79667 130.796 6.63533 130.503 6.518C130.21 6.40067 129.865 6.342 129.469 6.342C128.926 6.342 128.501 6.45933 128.193 6.694C127.9 6.92867 127.753 7.23667 127.753 7.618C127.753 7.89667 127.826 8.124 127.973 8.3C128.12 8.476 128.406 8.64467 128.831 8.806C129.256 8.96733 129.894 9.12867 130.745 9.29C132.153 9.56867 133.158 10.0013 133.759 10.588C134.375 11.1747 134.683 11.8933 134.683 12.744C134.683 13.7707 134.236 14.6067 133.341 15.252C132.446 15.8973 131.192 16.22 129.579 16.22Z" fill="white"/>
</svg>
