<svg width="140" height="39" viewBox="0 0 140 39" fill="none" xmlns="http://www.w3.org/2000/svg">
<rect width="140" height="39" rx="8" fill="#DC4200" fill-opacity="0.11"/>
<path d="M26.352 23.964H29.768V25H25.078V15.242H26.352V23.964ZM34.467 25.126C33.7483 25.126 33.095 24.9627 32.507 24.636C31.9283 24.3093 31.471 23.8473 31.135 23.25C30.8083 22.6433 30.645 21.9433 30.645 21.15C30.645 20.366 30.813 19.6753 31.149 19.078C31.4943 18.4713 31.961 18.0093 32.549 17.692C33.137 17.3653 33.795 17.202 34.523 17.202C35.251 17.202 35.909 17.3653 36.497 17.692C37.085 18.0093 37.547 18.4667 37.883 19.064C38.2283 19.6613 38.401 20.3567 38.401 21.15C38.401 21.9433 38.2236 22.6433 37.869 23.25C37.5236 23.8473 37.0523 24.3093 36.455 24.636C35.8576 24.9627 35.195 25.126 34.467 25.126ZM34.467 24.006C34.9243 24.006 35.3536 23.8987 35.755 23.684C36.1563 23.4693 36.4783 23.1473 36.721 22.718C36.973 22.2887 37.099 21.766 37.099 21.15C37.099 20.534 36.9776 20.0113 36.735 19.582C36.4923 19.1527 36.175 18.8353 35.783 18.63C35.391 18.4153 34.9663 18.308 34.509 18.308C34.0423 18.308 33.613 18.4153 33.221 18.63C32.8383 18.8353 32.5303 19.1527 32.297 19.582C32.0636 20.0113 31.947 20.534 31.947 21.15C31.947 21.7753 32.059 22.3027 32.283 22.732C32.5163 23.1613 32.8243 23.4833 33.207 23.698C33.5896 23.9033 34.0096 24.006 34.467 24.006ZM41.35 18.574C41.574 18.1353 41.8914 17.7947 42.302 17.552C42.722 17.3093 43.2307 17.188 43.828 17.188V18.504H43.492C42.064 18.504 41.35 19.2787 41.35 20.828V25H40.076V17.328H41.35V18.574ZM52.2987 20.87C52.2987 21.1127 52.2847 21.3693 52.2567 21.64H46.1247C46.1714 22.396 46.428 22.9887 46.8947 23.418C47.3707 23.838 47.9447 24.048 48.6167 24.048C49.1674 24.048 49.6247 23.922 49.9887 23.67C50.362 23.4087 50.6234 23.0633 50.7727 22.634H52.1447C51.9394 23.3713 51.5287 23.9733 50.9127 24.44C50.2967 24.8973 49.5314 25.126 48.6167 25.126C47.8887 25.126 47.2354 24.9627 46.6567 24.636C46.0874 24.3093 45.6394 23.8473 45.3127 23.25C44.986 22.6433 44.8227 21.9433 44.8227 21.15C44.8227 20.3567 44.9814 19.6613 45.2987 19.064C45.616 18.4667 46.0594 18.0093 46.6287 17.692C47.2074 17.3653 47.87 17.202 48.6167 17.202C49.3447 17.202 49.9887 17.3607 50.5487 17.678C51.1087 17.9953 51.538 18.434 51.8367 18.994C52.1447 19.5447 52.2987 20.17 52.2987 20.87ZM50.9827 20.604C50.9827 20.1187 50.8754 19.7033 50.6607 19.358C50.446 19.0033 50.152 18.7373 49.7787 18.56C49.4147 18.3733 49.0087 18.28 48.5607 18.28C47.9167 18.28 47.366 18.4853 46.9087 18.896C46.4607 19.3067 46.204 19.876 46.1387 20.604H50.9827ZM63.2063 17.188C63.8037 17.188 64.3357 17.314 64.8023 17.566C65.269 17.8087 65.6377 18.1773 65.9083 18.672C66.179 19.1667 66.3143 19.7687 66.3143 20.478V25H65.0543V20.66C65.0543 19.8947 64.863 19.3113 64.4803 18.91C64.107 18.4993 63.5983 18.294 62.9543 18.294C62.2917 18.294 61.7643 18.5087 61.3723 18.938C60.9803 19.358 60.7843 19.9693 60.7843 20.772V25H59.5243V20.66C59.5243 19.8947 59.333 19.3113 58.9503 18.91C58.577 18.4993 58.0683 18.294 57.4243 18.294C56.7617 18.294 56.2343 18.5087 55.8423 18.938C55.4503 19.358 55.2543 19.9693 55.2543 20.772V25H53.9803V17.328H55.2543V18.434C55.5063 18.0327 55.8423 17.7247 56.2623 17.51C56.6917 17.2953 57.163 17.188 57.6763 17.188C58.3203 17.188 58.8897 17.3327 59.3843 17.622C59.879 17.9113 60.2477 18.336 60.4903 18.896C60.705 18.3547 61.0597 17.9347 61.5543 17.636C62.049 17.3373 62.5997 17.188 63.2063 17.188ZM72.7946 16.082C72.5519 16.082 72.3466 15.998 72.1786 15.83C72.0106 15.662 71.9266 15.4567 71.9266 15.214C71.9266 14.9713 72.0106 14.766 72.1786 14.598C72.3466 14.43 72.5519 14.346 72.7946 14.346C73.0279 14.346 73.2239 14.43 73.3826 14.598C73.5506 14.766 73.6346 14.9713 73.6346 15.214C73.6346 15.4567 73.5506 15.662 73.3826 15.83C73.2239 15.998 73.0279 16.082 72.7946 16.082ZM73.4106 17.328V25H72.1366V17.328H73.4106ZM76.8559 18.742C77.1079 18.3033 77.4812 17.9393 77.9759 17.65C78.4799 17.3513 79.0632 17.202 79.7259 17.202C80.4072 17.202 81.0232 17.3653 81.5739 17.692C82.1339 18.0187 82.5726 18.4807 82.8899 19.078C83.2072 19.666 83.3659 20.352 83.3659 21.136C83.3659 21.9107 83.2072 22.6013 82.8899 23.208C82.5726 23.8147 82.1339 24.286 81.5739 24.622C81.0232 24.958 80.4072 25.126 79.7259 25.126C79.0726 25.126 78.4939 24.9813 77.9899 24.692C77.4952 24.3933 77.1172 24.0247 76.8559 23.586V28.64H75.5819V17.328H76.8559V18.742ZM82.0639 21.136C82.0639 20.5573 81.9472 20.0533 81.7139 19.624C81.4806 19.1947 81.1632 18.868 80.7619 18.644C80.3699 18.42 79.9359 18.308 79.4599 18.308C78.9932 18.308 78.5592 18.4247 78.1579 18.658C77.7659 18.882 77.4486 19.2133 77.2059 19.652C76.9726 20.0813 76.8559 20.5807 76.8559 21.15C76.8559 21.7287 76.9726 22.2373 77.2059 22.676C77.4486 23.1053 77.7659 23.4367 78.1579 23.67C78.5592 23.894 78.9932 24.006 79.4599 24.006C79.9359 24.006 80.3699 23.894 80.7619 23.67C81.1632 23.4367 81.4806 23.1053 81.7139 22.676C81.9472 22.2373 82.0639 21.724 82.0639 21.136ZM87.7588 25.126C87.1708 25.126 86.6435 25.028 86.1768 24.832C85.7102 24.6267 85.3415 24.3467 85.0708 23.992C84.8002 23.628 84.6508 23.2127 84.6228 22.746H85.9388C85.9762 23.1287 86.1535 23.4413 86.4708 23.684C86.7975 23.9267 87.2222 24.048 87.7448 24.048C88.2302 24.048 88.6128 23.9407 88.8928 23.726C89.1728 23.5113 89.3128 23.2407 89.3128 22.914C89.3128 22.578 89.1635 22.3307 88.8648 22.172C88.5662 22.004 88.1042 21.8407 87.4788 21.682C86.9095 21.5327 86.4428 21.3833 86.0788 21.234C85.7242 21.0753 85.4162 20.8467 85.1548 20.548C84.9028 20.24 84.7768 19.8387 84.7768 19.344C84.7768 18.952 84.8935 18.5927 85.1268 18.266C85.3602 17.9393 85.6915 17.6827 86.1208 17.496C86.5502 17.3 87.0402 17.202 87.5908 17.202C88.4402 17.202 89.1262 17.4167 89.6488 17.846C90.1715 18.2753 90.4515 18.8633 90.4888 19.61H89.2148C89.1868 19.2087 89.0235 18.8867 88.7248 18.644C88.4355 18.4013 88.0435 18.28 87.5488 18.28C87.0915 18.28 86.7275 18.378 86.4568 18.574C86.1862 18.77 86.0508 19.0267 86.0508 19.344C86.0508 19.596 86.1302 19.806 86.2888 19.974C86.4568 20.1327 86.6622 20.2633 86.9048 20.366C87.1568 20.4593 87.5022 20.5667 87.9408 20.688C88.4915 20.8373 88.9395 20.9867 89.2848 21.136C89.6302 21.276 89.9242 21.4907 90.1668 21.78C90.4188 22.0693 90.5495 22.4473 90.5588 22.914C90.5588 23.334 90.4422 23.712 90.2088 24.048C89.9755 24.384 89.6442 24.65 89.2148 24.846C88.7948 25.0327 88.3095 25.126 87.7588 25.126ZM99.1613 17.328V25H97.8873V23.866C97.6446 24.258 97.304 24.566 96.8653 24.79C96.436 25.0047 95.96 25.112 95.4373 25.112C94.84 25.112 94.3033 24.9907 93.8273 24.748C93.3513 24.496 92.9733 24.1227 92.6933 23.628C92.4226 23.1333 92.2873 22.5313 92.2873 21.822V17.328H93.5473V21.654C93.5473 22.41 93.7386 22.9933 94.1213 23.404C94.504 23.8053 95.0266 24.006 95.6893 24.006C96.3706 24.006 96.9073 23.796 97.2993 23.376C97.6913 22.956 97.8873 22.3447 97.8873 21.542V17.328H99.1613ZM110.538 17.188C111.136 17.188 111.668 17.314 112.134 17.566C112.601 17.8087 112.97 18.1773 113.24 18.672C113.511 19.1667 113.646 19.7687 113.646 20.478V25H112.386V20.66C112.386 19.8947 112.195 19.3113 111.812 18.91C111.439 18.4993 110.93 18.294 110.286 18.294C109.624 18.294 109.096 18.5087 108.704 18.938C108.312 19.358 108.116 19.9693 108.116 20.772V25H106.856V20.66C106.856 19.8947 106.665 19.3113 106.282 18.91C105.909 18.4993 105.4 18.294 104.756 18.294C104.094 18.294 103.566 18.5087 103.174 18.938C102.782 19.358 102.586 19.9693 102.586 20.772V25H101.312V17.328H102.586V18.434C102.838 18.0327 103.174 17.7247 103.594 17.51C104.024 17.2953 104.495 17.188 105.008 17.188C105.652 17.188 106.222 17.3327 106.716 17.622C107.211 17.9113 107.58 18.336 107.822 18.896C108.037 18.3547 108.392 17.9347 108.886 17.636C109.381 17.3373 109.932 17.188 110.538 17.188Z" fill="white"/>
</svg>
