<svg width="140" height="39" viewBox="0 0 140 39" fill="none" xmlns="http://www.w3.org/2000/svg">
<rect width="140" height="39" rx="8" fill="#B000DC" fill-opacity="0.11"/>
<path d="M16.352 23.964H19.768V25H15.078V15.242H16.352V23.964ZM24.467 25.126C23.7483 25.126 23.095 24.9627 22.507 24.636C21.9283 24.3093 21.471 23.8473 21.135 23.25C20.8083 22.6433 20.645 21.9433 20.645 21.15C20.645 20.366 20.813 19.6753 21.149 19.078C21.4943 18.4713 21.961 18.0093 22.549 17.692C23.137 17.3653 23.795 17.202 24.523 17.202C25.251 17.202 25.909 17.3653 26.497 17.692C27.085 18.0093 27.547 18.4667 27.883 19.064C28.2283 19.6613 28.401 20.3567 28.401 21.15C28.401 21.9433 28.2236 22.6433 27.869 23.25C27.5236 23.8473 27.0523 24.3093 26.455 24.636C25.8576 24.9627 25.195 25.126 24.467 25.126ZM24.467 24.006C24.9243 24.006 25.3536 23.8987 25.755 23.684C26.1563 23.4693 26.4783 23.1473 26.721 22.718C26.973 22.2887 27.099 21.766 27.099 21.15C27.099 20.534 26.9776 20.0113 26.735 19.582C26.4923 19.1527 26.175 18.8353 25.783 18.63C25.391 18.4153 24.9663 18.308 24.509 18.308C24.0423 18.308 23.613 18.4153 23.221 18.63C22.8383 18.8353 22.5303 19.1527 22.297 19.582C22.0636 20.0113 21.947 20.534 21.947 21.15C21.947 21.7753 22.059 22.3027 22.283 22.732C22.5163 23.1613 22.8243 23.4833 23.207 23.698C23.5896 23.9033 24.0096 24.006 24.467 24.006ZM31.35 18.574C31.574 18.1353 31.8914 17.7947 32.302 17.552C32.722 17.3093 33.2307 17.188 33.828 17.188V18.504H33.492C32.064 18.504 31.35 19.2787 31.35 20.828V25H30.076V17.328H31.35V18.574ZM42.2987 20.87C42.2987 21.1127 42.2847 21.3693 42.2567 21.64H36.1247C36.1714 22.396 36.428 22.9887 36.8947 23.418C37.3707 23.838 37.9447 24.048 38.6167 24.048C39.1674 24.048 39.6247 23.922 39.9887 23.67C40.362 23.4087 40.6234 23.0633 40.7727 22.634H42.1447C41.9394 23.3713 41.5287 23.9733 40.9127 24.44C40.2967 24.8973 39.5314 25.126 38.6167 25.126C37.8887 25.126 37.2354 24.9627 36.6567 24.636C36.0874 24.3093 35.6394 23.8473 35.3127 23.25C34.986 22.6433 34.8227 21.9433 34.8227 21.15C34.8227 20.3567 34.9814 19.6613 35.2987 19.064C35.616 18.4667 36.0594 18.0093 36.6287 17.692C37.2074 17.3653 37.87 17.202 38.6167 17.202C39.3447 17.202 39.9887 17.3607 40.5487 17.678C41.1087 17.9953 41.538 18.434 41.8367 18.994C42.1447 19.5447 42.2987 20.17 42.2987 20.87ZM40.9827 20.604C40.9827 20.1187 40.8754 19.7033 40.6607 19.358C40.446 19.0033 40.152 18.7373 39.7787 18.56C39.4147 18.3733 39.0087 18.28 38.5607 18.28C37.9167 18.28 37.366 18.4853 36.9087 18.896C36.4607 19.3067 36.204 19.876 36.1387 20.604H40.9827ZM53.2063 17.188C53.8037 17.188 54.3357 17.314 54.8023 17.566C55.269 17.8087 55.6377 18.1773 55.9083 18.672C56.179 19.1667 56.3143 19.7687 56.3143 20.478V25H55.0543V20.66C55.0543 19.8947 54.863 19.3113 54.4803 18.91C54.107 18.4993 53.5983 18.294 52.9543 18.294C52.2917 18.294 51.7643 18.5087 51.3723 18.938C50.9803 19.358 50.7843 19.9693 50.7843 20.772V25H49.5243V20.66C49.5243 19.8947 49.333 19.3113 48.9503 18.91C48.577 18.4993 48.0683 18.294 47.4243 18.294C46.7617 18.294 46.2343 18.5087 45.8423 18.938C45.4503 19.358 45.2543 19.9693 45.2543 20.772V25H43.9803V17.328H45.2543V18.434C45.5063 18.0327 45.8423 17.7247 46.2623 17.51C46.6917 17.2953 47.163 17.188 47.6763 17.188C48.3203 17.188 48.8897 17.3327 49.3843 17.622C49.879 17.9113 50.2477 18.336 50.4903 18.896C50.705 18.3547 51.0597 17.9347 51.5543 17.636C52.049 17.3373 52.5997 17.188 53.2063 17.188ZM62.7946 16.082C62.5519 16.082 62.3466 15.998 62.1786 15.83C62.0106 15.662 61.9266 15.4567 61.9266 15.214C61.9266 14.9713 62.0106 14.766 62.1786 14.598C62.3466 14.43 62.5519 14.346 62.7946 14.346C63.0279 14.346 63.2239 14.43 63.3826 14.598C63.5506 14.766 63.6346 14.9713 63.6346 15.214C63.6346 15.4567 63.5506 15.662 63.3826 15.83C63.2239 15.998 63.0279 16.082 62.7946 16.082ZM63.4106 17.328V25H62.1366V17.328H63.4106ZM66.8559 18.742C67.1079 18.3033 67.4812 17.9393 67.9759 17.65C68.4799 17.3513 69.0632 17.202 69.7259 17.202C70.4072 17.202 71.0232 17.3653 71.5739 17.692C72.1339 18.0187 72.5726 18.4807 72.8899 19.078C73.2072 19.666 73.3659 20.352 73.3659 21.136C73.3659 21.9107 73.2072 22.6013 72.8899 23.208C72.5726 23.8147 72.1339 24.286 71.5739 24.622C71.0232 24.958 70.4072 25.126 69.7259 25.126C69.0726 25.126 68.4939 24.9813 67.9899 24.692C67.4952 24.3933 67.1172 24.0247 66.8559 23.586V28.64H65.5819V17.328H66.8559V18.742ZM72.0639 21.136C72.0639 20.5573 71.9472 20.0533 71.7139 19.624C71.4806 19.1947 71.1632 18.868 70.7619 18.644C70.3699 18.42 69.9359 18.308 69.4599 18.308C68.9932 18.308 68.5592 18.4247 68.1579 18.658C67.7659 18.882 67.4486 19.2133 67.2059 19.652C66.9726 20.0813 66.8559 20.5807 66.8559 21.15C66.8559 21.7287 66.9726 22.2373 67.2059 22.676C67.4486 23.1053 67.7659 23.4367 68.1579 23.67C68.5592 23.894 68.9932 24.006 69.4599 24.006C69.9359 24.006 70.3699 23.894 70.7619 23.67C71.1632 23.4367 71.4806 23.1053 71.7139 22.676C71.9472 22.2373 72.0639 21.724 72.0639 21.136ZM77.7588 25.126C77.1708 25.126 76.6435 25.028 76.1768 24.832C75.7102 24.6267 75.3415 24.3467 75.0708 23.992C74.8002 23.628 74.6508 23.2127 74.6228 22.746H75.9388C75.9762 23.1287 76.1535 23.4413 76.4708 23.684C76.7975 23.9267 77.2222 24.048 77.7448 24.048C78.2302 24.048 78.6128 23.9407 78.8928 23.726C79.1728 23.5113 79.3128 23.2407 79.3128 22.914C79.3128 22.578 79.1635 22.3307 78.8648 22.172C78.5662 22.004 78.1042 21.8407 77.4788 21.682C76.9095 21.5327 76.4428 21.3833 76.0788 21.234C75.7242 21.0753 75.4162 20.8467 75.1548 20.548C74.9028 20.24 74.7768 19.8387 74.7768 19.344C74.7768 18.952 74.8935 18.5927 75.1268 18.266C75.3602 17.9393 75.6915 17.6827 76.1208 17.496C76.5502 17.3 77.0402 17.202 77.5908 17.202C78.4402 17.202 79.1262 17.4167 79.6488 17.846C80.1715 18.2753 80.4515 18.8633 80.4888 19.61H79.2148C79.1868 19.2087 79.0235 18.8867 78.7248 18.644C78.4355 18.4013 78.0435 18.28 77.5488 18.28C77.0915 18.28 76.7275 18.378 76.4568 18.574C76.1862 18.77 76.0508 19.0267 76.0508 19.344C76.0508 19.596 76.1302 19.806 76.2888 19.974C76.4568 20.1327 76.6622 20.2633 76.9048 20.366C77.1568 20.4593 77.5022 20.5667 77.9408 20.688C78.4915 20.8373 78.9395 20.9867 79.2848 21.136C79.6302 21.276 79.9242 21.4907 80.1668 21.78C80.4188 22.0693 80.5495 22.4473 80.5588 22.914C80.5588 23.334 80.4422 23.712 80.2088 24.048C79.9755 24.384 79.6442 24.65 79.2148 24.846C78.7948 25.0327 78.3095 25.126 77.7588 25.126ZM89.1613 17.328V25H87.8873V23.866C87.6446 24.258 87.304 24.566 86.8653 24.79C86.436 25.0047 85.96 25.112 85.4373 25.112C84.84 25.112 84.3033 24.9907 83.8273 24.748C83.3513 24.496 82.9733 24.1227 82.6933 23.628C82.4226 23.1333 82.2873 22.5313 82.2873 21.822V17.328H83.5473V21.654C83.5473 22.41 83.7386 22.9933 84.1213 23.404C84.504 23.8053 85.0266 24.006 85.6893 24.006C86.3706 24.006 86.9073 23.796 87.2993 23.376C87.6913 22.956 87.8873 22.3447 87.8873 21.542V17.328H89.1613ZM100.538 17.188C101.136 17.188 101.668 17.314 102.134 17.566C102.601 17.8087 102.97 18.1773 103.24 18.672C103.511 19.1667 103.646 19.7687 103.646 20.478V25H102.386V20.66C102.386 19.8947 102.195 19.3113 101.812 18.91C101.439 18.4993 100.93 18.294 100.286 18.294C99.6237 18.294 99.0964 18.5087 98.7044 18.938C98.3124 19.358 98.1164 19.9693 98.1164 20.772V25H96.8564V20.66C96.8564 19.8947 96.665 19.3113 96.2824 18.91C95.909 18.4993 95.4004 18.294 94.7564 18.294C94.0937 18.294 93.5664 18.5087 93.1744 18.938C92.7824 19.358 92.5864 19.9693 92.5864 20.772V25H91.3124V17.328H92.5864V18.434C92.8384 18.0327 93.1744 17.7247 93.5944 17.51C94.0237 17.2953 94.495 17.188 95.0084 17.188C95.6524 17.188 96.2217 17.3327 96.7164 17.622C97.211 17.9113 97.5797 18.336 97.8224 18.896C98.037 18.3547 98.3917 17.9347 98.8864 17.636C99.381 17.3373 99.9317 17.188 100.538 17.188Z" fill="white"/>
</svg>
