<svg width="119" height="33" viewBox="0 0 119 33" fill="none" xmlns="http://www.w3.org/2000/svg">
<g clip-path="url(#clip0_1_501)">
<path d="M107.721 17.9851C107.77 17.9931 107.82 17.9967 107.87 17.9961H116.336L116.151 18.082C115.97 18.1674 115.806 18.2836 115.666 18.4254L113.292 20.7994C112.979 21.0979 112.927 21.578 113.167 21.937C113.447 22.3196 113.985 22.4027 114.367 22.1225C114.398 22.0999 114.428 22.0752 114.455 22.0487L118.748 17.7557C119.084 17.4206 119.084 16.8769 118.749 16.5414C118.749 16.5412 118.748 16.541 118.748 16.5408L114.455 12.2478C114.119 11.913 113.576 11.9137 113.241 12.2495C113.215 12.2759 113.19 12.304 113.167 12.3337C112.927 12.6927 112.979 13.1728 113.292 13.4713L115.662 15.8496C115.788 15.9757 115.932 16.0815 116.091 16.163L116.348 16.2789H107.917C107.478 16.2626 107.094 16.569 107.011 17.0001C106.935 17.4682 107.253 17.9092 107.721 17.9851Z" fill="white"/>
</g>
<g clip-path="url(#clip1_1_501)">
<path d="M11.2787 17.9851C11.2296 17.9931 11.1799 17.9967 11.1302 17.9961H2.66446L2.84906 18.082C3.0295 18.1674 3.19365 18.2836 3.33417 18.4254L5.70818 20.7994C6.02084 21.0979 6.07338 21.578 5.83267 21.937C5.55253 22.3196 5.01529 22.4027 4.63268 22.1225C4.60177 22.0999 4.57239 22.0752 4.54478 22.0487L0.251816 17.7557C-0.0836792 17.4206 -0.0839744 16.8769 0.251145 16.5414C0.25136 16.5412 0.251602 16.541 0.251816 16.5408L4.54478 12.2478C4.88055 11.913 5.42417 11.9137 5.75902 12.2495C5.78537 12.2759 5.80998 12.304 5.83267 12.3337C6.07338 12.6927 6.02084 13.1728 5.70818 13.4713L3.33846 15.8496C3.21249 15.9757 3.06765 16.0815 2.90916 16.163L2.65159 16.2789H11.083C11.5216 16.2626 11.9064 16.569 11.9888 17.0001C12.0647 17.4682 11.7468 17.9092 11.2787 17.9851Z" fill="white"/>
</g>
<path d="M41.72 12V10.336H45.048V22H43.208V12H41.72ZM55.774 22.144C54.942 22.144 54.19 21.9573 53.518 21.584C52.846 21.2 52.318 20.6667 51.934 19.984C51.55 19.2907 51.358 18.4907 51.358 17.584C51.358 16.688 51.5553 15.8933 51.95 15.2C52.3447 14.5067 52.8833 13.9733 53.566 13.6C54.2487 13.2267 55.0113 13.04 55.854 13.04C56.6967 13.04 57.4593 13.2267 58.142 13.6C58.8247 13.9733 59.3633 14.5067 59.758 15.2C60.1527 15.8933 60.35 16.688 60.35 17.584C60.35 18.48 60.1473 19.2747 59.742 19.968C59.3367 20.6613 58.782 21.2 58.078 21.584C57.3847 21.9573 56.6167 22.144 55.774 22.144ZM55.774 20.56C56.2433 20.56 56.6807 20.448 57.086 20.224C57.502 20 57.838 19.664 58.094 19.216C58.35 18.768 58.478 18.224 58.478 17.584C58.478 16.944 58.3553 16.4053 58.11 15.968C57.8647 15.52 57.5393 15.184 57.134 14.96C56.7287 14.736 56.2913 14.624 55.822 14.624C55.3527 14.624 54.9153 14.736 54.51 14.96C54.1153 15.184 53.8007 15.52 53.566 15.968C53.3313 16.4053 53.214 16.944 53.214 17.584C53.214 18.5333 53.454 19.2693 53.934 19.792C54.4247 20.304 55.038 20.56 55.774 20.56ZM65.8491 14.672H64.2171V22H62.3771V14.672H61.3371V13.184H62.3771V12.56C62.3771 11.5467 62.6438 10.8107 63.1771 10.352C63.7211 9.88267 64.5691 9.648 65.7211 9.648V11.168C65.1665 11.168 64.7771 11.2747 64.5531 11.488C64.3291 11.6907 64.2171 12.048 64.2171 12.56V13.184H65.8491V14.672ZM72.3899 19.52C73.4139 18.6347 74.2192 17.9093 74.8059 17.344C75.4032 16.768 75.8992 16.1707 76.2939 15.552C76.6885 14.9333 76.8859 14.3147 76.8859 13.696C76.8859 13.056 76.7312 12.5547 76.4219 12.192C76.1232 11.8293 75.6485 11.648 74.9979 11.648C74.3685 11.648 73.8779 11.8507 73.5259 12.256C73.1845 12.6507 73.0032 13.184 72.9819 13.856H71.2219C71.2539 12.64 71.6165 11.712 72.3099 11.072C73.0139 10.4213 73.9045 10.096 74.9819 10.096C76.1445 10.096 77.0512 10.416 77.7019 11.056C78.3632 11.696 78.6939 12.5493 78.6939 13.616C78.6939 14.384 78.4965 15.1253 78.1019 15.84C77.7179 16.544 77.2539 17.1787 76.7099 17.744C76.1765 18.2987 75.4939 18.944 74.6619 19.68L73.9419 20.32H79.0139V21.84H71.2379V20.512L72.3899 19.52Z" fill="white"/>
<defs>
<clipPath id="clip0_1_501">
<rect width="12" height="12" fill="white" transform="matrix(-1 0 0 -1 119 22)"/>
</clipPath>
<clipPath id="clip1_1_501">
<rect width="12" height="12" fill="white" transform="matrix(1 0 0 -1 0 22)"/>
</clipPath>
</defs>
</svg>
